<svg width="150" height="143" viewBox="0 0 150 143" fill="none" xmlns="http://www.w3.org/2000/svg">
<circle cx="5.64492" cy="5.4652" r="5.07873" fill="#B4A69A" fill-opacity="0.2"/>
<circle cx="28.8507" cy="5.4652" r="5.07873" fill="#B4A69A" fill-opacity="0.2"/>
<circle cx="52.0564" cy="5.4652" r="5.07873" fill="#B4A69A" fill-opacity="0.2"/>
<circle cx="75.2622" cy="5.4652" r="5.07873" fill="#B4A69A" fill-opacity="0.2"/>
<circle cx="98.468" cy="5.4652" r="5.07873" fill="#B4A69A" fill-opacity="0.2"/>
<circle cx="121.674" cy="5.4652" r="5.07873" fill="#B4A69A" fill-opacity="0.2"/>
<circle cx="144.88" cy="5.4652" r="5.07873" fill="#B4A69A" fill-opacity="0.2"/>
<circle cx="5.64492" cy="24.337" r="5.07873" fill="#B4A69A" fill-opacity="0.2"/>
<circle cx="28.8507" cy="24.337" r="5.07873" fill="#B4A69A" fill-opacity="0.2"/>
<circle cx="52.0564" cy="24.337" r="5.07873" fill="#B4A69A" fill-opacity="0.2"/>
<circle cx="75.2622" cy="24.337" r="5.07873" fill="#B4A69A" fill-opacity="0.2"/>
<circle cx="98.468" cy="24.337" r="5.07873" fill="#B4A69A" fill-opacity="0.2"/>
<circle cx="121.674" cy="24.337" r="5.07873" fill="#B4A69A" fill-opacity="0.2"/>
<circle cx="144.88" cy="24.337" r="5.07873" fill="#B4A69A" fill-opacity="0.2"/>
<circle cx="5.64492" cy="43.2093" r="5.07873" fill="#B4A69A" fill-opacity="0.2"/>
<circle cx="28.8507" cy="43.2091" r="5.07873" fill="#B4A69A" fill-opacity="0.2"/>
<circle cx="52.0564" cy="43.2091" r="5.07873" fill="#B4A69A" fill-opacity="0.2"/>
<circle cx="75.2622" cy="43.2091" r="5.07873" fill="#B4A69A" fill-opacity="0.2"/>
<circle cx="98.468" cy="43.2091" r="5.07873" fill="#B4A69A" fill-opacity="0.2"/>
<circle cx="121.674" cy="43.2091" r="5.07873" fill="#B4A69A" fill-opacity="0.2"/>
<circle cx="144.88" cy="43.2091" r="5.07873" fill="#B4A69A" fill-opacity="0.2"/>
<circle cx="5.64492" cy="62.0807" r="5.07873" fill="#B4A69A" fill-opacity="0.2"/>
<circle cx="28.8507" cy="62.0807" r="5.07873" fill="#B4A69A" fill-opacity="0.2"/>
<circle cx="52.0564" cy="62.0807" r="5.07873" fill="#B4A69A" fill-opacity="0.2"/>
<circle cx="75.2622" cy="62.0807" r="5.07873" fill="#B4A69A" fill-opacity="0.2"/>
<circle cx="98.468" cy="62.0807" r="5.07873" fill="#B4A69A" fill-opacity="0.2"/>
<circle cx="121.674" cy="62.0807" r="5.07873" fill="#B4A69A" fill-opacity="0.2"/>
<circle cx="144.88" cy="62.0807" r="5.07873" fill="#B4A69A" fill-opacity="0.2"/>
<circle cx="5.64492" cy="80.9528" r="5.07873" fill="#B4A69A" fill-opacity="0.2"/>
<circle cx="28.8507" cy="80.9528" r="5.07873" fill="#B4A69A" fill-opacity="0.2"/>
<circle cx="52.0564" cy="80.9528" r="5.07873" fill="#B4A69A" fill-opacity="0.2"/>
<circle cx="75.2622" cy="80.9528" r="5.07873" fill="#B4A69A" fill-opacity="0.2"/>
<circle cx="98.468" cy="80.9528" r="5.07873" fill="#B4A69A" fill-opacity="0.2"/>
<circle cx="121.674" cy="80.9528" r="5.07873" fill="#B4A69A" fill-opacity="0.2"/>
<circle cx="144.88" cy="80.9528" r="5.07873" fill="#B4A69A" fill-opacity="0.2"/>
<circle cx="5.64492" cy="99.8243" r="5.07873" fill="#B4A69A" fill-opacity="0.2"/>
<circle cx="28.8507" cy="99.8243" r="5.07873" fill="#B4A69A" fill-opacity="0.2"/>
<circle cx="52.0564" cy="99.8243" r="5.07873" fill="#B4A69A" fill-opacity="0.2"/>
<circle cx="75.2622" cy="99.8243" r="5.07873" fill="#B4A69A" fill-opacity="0.2"/>
<circle cx="98.468" cy="99.8243" r="5.07873" fill="#B4A69A" fill-opacity="0.2"/>
<circle cx="121.674" cy="99.8243" r="5.07873" fill="#B4A69A" fill-opacity="0.2"/>
<circle cx="144.88" cy="99.8243" r="5.07873" fill="#B4A69A" fill-opacity="0.2"/>
<circle cx="5.64492" cy="118.696" r="5.07873" fill="#B4A69A" fill-opacity="0.2"/>
<circle cx="28.8507" cy="118.696" r="5.07873" fill="#B4A69A" fill-opacity="0.2"/>
<circle cx="52.0564" cy="118.696" r="5.07873" fill="#B4A69A" fill-opacity="0.2"/>
<circle cx="75.2622" cy="118.696" r="5.07873" fill="#B4A69A" fill-opacity="0.2"/>
<circle cx="98.468" cy="118.696" r="5.07873" fill="#B4A69A" fill-opacity="0.2"/>
<circle cx="121.674" cy="118.696" r="5.07873" fill="#B4A69A" fill-opacity="0.2"/>
<circle cx="144.88" cy="118.696" r="5.07873" fill="#B4A69A" fill-opacity="0.2"/>
<circle cx="5.64492" cy="137.568" r="5.07873" fill="#B4A69A" fill-opacity="0.2"/>
<circle cx="28.8507" cy="137.568" r="5.07873" fill="#B4A69A" fill-opacity="0.2"/>
<circle cx="52.0564" cy="137.568" r="5.07873" fill="#B4A69A" fill-opacity="0.2"/>
<circle cx="75.2622" cy="137.568" r="5.07873" fill="#B4A69A" fill-opacity="0.2"/>
<circle cx="98.468" cy="137.568" r="5.07873" fill="#B4A69A" fill-opacity="0.2"/>
<circle cx="121.674" cy="137.568" r="5.07873" fill="#B4A69A" fill-opacity="0.2"/>
<circle cx="144.88" cy="137.568" r="5.07873" fill="#B4A69A" fill-opacity="0.2"/>
</svg>
