<svg width="177" height="68" viewBox="0 0 177 68" fill="none" xmlns="http://www.w3.org/2000/svg">
<path d="M76.4745 46.2241C75.6652 46.6019 74.9803 46.9797 74.2332 47.2945C72.6768 47.8613 71.0582 48.365 69.315 48.1132C68.4434 47.9872 67.5718 47.7353 66.8247 47.2945C66.2644 46.9797 65.7663 46.5389 65.3305 45.9722C63.8986 44.272 63.4628 42.194 63.027 40.116C62.7157 38.6677 62.4667 37.2194 62.2799 35.771C62.1554 34.8895 62.1554 33.9449 62.0932 33.0633C62.0309 31.8669 61.9687 30.6705 61.9687 29.4111C61.9687 28.6554 62.0309 27.8998 62.0309 27.2071C62.0309 26.4515 62.0932 25.6959 62.0932 24.9402C62.0932 23.6808 62.1554 22.4214 62.0932 21.162C62.0932 20.3434 62.1554 19.5248 61.9687 18.7692C61.7819 17.8876 61.4083 17.006 61.0348 16.1874C60.848 15.8096 60.35 15.7466 59.9142 15.9355C59.1048 16.2504 58.6068 16.943 58.171 17.5727C57.4239 18.6432 56.8013 19.8397 56.1165 20.9731C55.743 21.6028 55.3694 22.2325 55.1204 22.9252C54.8714 23.4919 54.7469 24.1216 54.4356 24.6883C53.6885 26.1366 53.1904 27.6479 52.6924 29.2222C52.5056 29.8519 52.1943 30.3556 51.9453 30.9853C51.634 31.678 51.385 32.4336 51.0737 33.1893C50.3889 34.6376 49.7041 36.1489 48.957 37.5342C48.3344 38.7306 47.7118 39.8641 46.9648 40.9975C46.2177 42.131 45.4706 43.3274 44.4122 44.272C43.6029 44.9647 42.7313 45.4684 41.7352 45.3425C41.0504 45.2795 40.4278 44.9017 39.9297 44.335C38.4978 42.7607 37.8753 40.8086 37.4395 38.7936C37.3772 38.6677 37.4395 38.4788 37.4395 38.1639C37.2527 38.2898 37.1282 38.3528 37.0037 38.4788C36.6301 39.1085 36.2566 39.8011 35.8208 40.4308C35.0737 41.5013 34.2644 42.5718 33.3928 43.5793C32.4589 44.6498 31.5251 45.7833 30.529 46.7278C28.2877 48.8058 25.9842 50.8209 23.0582 51.8284C21.6262 52.3321 20.1943 52.584 18.6379 52.3951C17.5173 52.2692 16.5212 51.9543 15.6496 51.1987C14.9648 50.6319 14.3422 50.0652 13.6574 49.4985C13.4706 49.3725 13.4083 49.3096 13.2216 49.4985C12.5367 50.1282 11.9142 50.7579 11.2294 51.3246C10.4823 51.9543 9.54842 52.1432 8.67683 52.3951C7.24492 52.7729 5.93753 52.3951 4.81691 51.5765C2.63792 49.9393 1.45504 47.6724 0.83247 45.0906C0.583443 44.0201 0.334416 42.9496 0.147645 41.8162C0.0853884 40.7457 0.0853884 39.6752 0.0853884 38.6677C0.0853884 37.5342 0.0231316 36.4007 0.147645 35.2673C0.396672 33.3782 0.707956 31.5521 1.01924 29.7259C1.33052 28.2147 1.57955 26.8293 1.95309 25.444C2.20212 24.3105 2.57566 23.24 2.88694 22.1066C2.9492 21.8547 3.01146 21.5398 3.07372 21.225C3.50951 19.8397 3.94531 18.3913 4.38111 17.006C4.75465 15.8096 5.12819 14.6132 5.56399 13.4167C6.06204 12.1573 6.62235 10.9609 7.12041 9.7015C7.36943 9.00883 7.55621 8.31616 7.92975 7.68646C8.61457 6.42706 9.36165 5.23063 10.42 4.22312C11.7274 2.96372 13.3461 2.20808 15.2138 1.83026C16.3344 1.64135 17.3305 1.70432 18.3889 2.01917C18.7002 2.08214 18.9492 2.08214 19.1982 1.83026C19.5718 1.45244 20.0698 1.07462 20.5679 0.82274C21.6885 0.25601 22.8714 0.50789 23.6807 1.51541C24.4901 2.5859 24.9259 3.78233 25.2371 5.10469C25.6107 6.80488 25.7352 8.50507 25.8597 10.2053C26.0465 12.4092 25.8597 14.5502 25.6107 16.7541C25.5484 17.3838 25.4239 17.9506 25.3617 18.5803C25.3617 18.8951 25.4239 19.147 25.3617 19.4618C25.2371 20.4064 24.9881 21.3509 24.8636 22.2955C24.7391 23.0511 24.6768 23.8068 24.5523 24.5624C24.3655 25.6329 24.1165 26.7034 23.8675 27.7739C23.8052 28.0887 23.8052 28.3406 23.743 28.6554C23.4939 29.4741 23.2449 30.2927 22.9959 31.0483C22.8714 31.5521 22.6846 32.0558 22.4978 32.4966C22.1866 33.4412 21.9375 34.3227 21.6262 35.2673C21.1904 36.4637 20.6301 37.7231 20.1321 38.9195C19.8208 39.6752 19.5718 40.3678 19.1982 41.0605C18.6379 42.131 18.0153 43.2015 17.3928 44.209C16.7702 45.2165 16.1476 46.1611 15.4628 47.1056C15.2138 47.4834 14.9648 47.7983 14.6535 48.1761C14.3422 48.5539 14.3422 48.9318 14.6535 49.1836C15.0893 49.6244 15.5251 50.0023 16.0231 50.3801C16.8325 51.0727 17.7663 51.4506 18.8247 51.5135C20.5056 51.7024 22.062 51.3246 23.5562 50.632C25.6107 49.6874 27.4161 48.365 29.0348 46.8538C29.7196 46.2241 30.4045 45.5944 31.0893 44.9017C31.4628 44.5239 31.7741 44.146 32.0854 43.7682C32.5834 43.1385 33.1438 42.5088 33.6418 41.8162C34.3266 40.8716 34.9492 39.9271 35.634 38.9825C36.1321 38.2898 36.6924 37.6601 37.1282 36.9675C37.315 36.7156 37.2527 36.2748 37.2527 35.96C37.1904 35.1413 37.0659 34.3857 37.0659 33.5671C37.0037 32.1188 37.0037 30.6705 37.0659 29.2851C37.0659 27.9628 37.0659 26.6404 37.2527 25.318C37.564 22.6733 37.9375 20.0915 38.4356 17.4468C38.6846 15.9355 39.1827 14.4242 39.6185 12.913C39.8052 12.2203 39.9297 11.5276 40.1788 10.835C40.4901 9.82744 40.8636 8.88289 41.2371 7.87537C41.3617 7.49755 41.4239 7.11973 41.6107 6.80488C42.171 5.73439 42.7936 4.6639 43.2916 3.53045C43.7274 2.64887 44.35 2.01917 45.0971 1.38947C45.8441 0.75977 46.9025 0.82274 47.5873 1.76729C48.2722 2.77481 48.4589 3.90827 48.5212 5.10469C48.6457 7.1827 48.708 9.26071 48.2722 11.3387C47.8986 12.9759 47.5251 14.6132 47.0893 16.1874C46.7157 17.5727 46.2177 18.9581 45.7819 20.3434C45.5951 20.8472 45.2838 21.3509 45.0971 21.8547C44.9103 22.2325 44.848 22.6733 44.7235 23.1141C44.1009 24.6254 43.5406 26.1366 42.9181 27.6479C42.42 28.8444 41.922 29.9778 41.3617 31.1742C41.2994 31.3632 41.1126 31.4891 41.0504 31.678C40.6146 32.6226 40.1788 33.5041 39.743 34.4487C39.5562 34.7635 39.3694 35.1413 39.1827 35.4562C38.6846 36.2748 38.4978 37.0934 38.6846 38.1009C38.9336 39.4233 39.2449 40.7457 39.8052 41.9421C40.1165 42.6348 40.5523 43.2645 41.0504 43.8942C41.4239 44.3979 42.6068 44.6498 43.1048 44.209C43.8519 43.5793 44.599 42.8866 45.2838 42.194C45.7196 41.6902 45.9687 41.1235 46.3422 40.5568C47.2761 38.9195 48.2722 37.3453 49.1438 35.7081C49.6418 34.7635 49.9531 33.693 50.4511 32.6855C50.8869 31.615 51.4473 30.6075 51.8831 29.537C52.2566 28.6554 52.6301 27.7109 52.9414 26.8293C53.4395 25.5699 53.813 24.3105 54.4978 23.1771C54.8091 22.6733 54.8714 22.0436 55.1827 21.5398C55.4317 20.9731 55.8052 20.4694 56.1165 19.9656C56.241 19.7767 56.3033 19.5248 56.4278 19.3359C56.4278 19.2729 56.4901 19.21 56.4901 19.147C57.0504 18.5173 57.3617 17.6987 57.9842 17.069C58.5445 16.4393 59.0426 15.7466 59.9142 15.4318C61.2838 14.928 62.0932 15.5577 62.529 16.6912C63.0893 18.0765 63.276 19.5248 63.276 21.0361C63.2138 22.7992 63.276 24.5624 63.276 26.3256C63.276 27.459 63.276 28.6554 63.3383 29.7889C63.3383 30.7335 63.4006 31.615 63.4006 32.5596C63.4006 32.9374 63.4628 33.3152 63.5251 33.6301C63.6496 34.8895 63.7741 36.0859 63.8986 37.3453C64.0854 38.6047 64.3344 39.8641 64.5834 41.0605C64.8947 42.5088 65.3928 43.8312 66.2021 45.0276C66.7002 45.7833 67.2605 46.35 68.1943 46.7278C69.3772 47.2316 70.5601 47.3575 71.8052 47.0427C72.4278 46.8538 73.1126 46.7278 73.7352 46.4759C73.9842 46.413 74.171 46.2241 74.3578 46.1611C74.9803 45.8462 75.6652 45.5944 76.2877 45.2795C76.7235 45.0906 76.9103 44.8387 76.9725 44.335C77.0971 43.0126 77.3461 41.6902 77.5951 40.3679C77.7819 39.4863 78.0309 38.5417 78.2799 37.6601C78.529 36.7786 78.9025 35.96 79.2138 35.0784C79.4006 34.5746 79.5251 34.1338 79.7118 33.6301C79.8986 33.1263 80.2099 32.6855 80.3967 32.1818C80.7079 31.5521 80.957 30.9224 81.3305 30.3556C81.7663 29.537 82.2021 28.7814 82.7002 28.0257C83.0737 27.396 83.5095 26.8293 83.9453 26.2626C84.4434 25.6959 84.9414 25.1291 85.4395 24.4994C85.813 23.9957 86.1243 23.4289 86.5601 23.0511C87.1827 22.4214 87.9297 21.7917 88.6768 21.225C89.4862 20.5323 90.42 19.9656 91.2293 19.2729C91.4161 19.147 91.5406 18.8321 91.6029 18.5803C91.7897 17.069 91.9764 15.4947 92.1632 13.9835C92.35 12.5351 92.599 11.1498 92.7858 9.7015C92.848 9.51259 92.9103 9.26071 92.9725 9.0718L92.9103 9.00883C92.7235 9.13477 92.5367 9.32368 92.35 9.44962C91.3539 10.1423 90.3578 10.8979 89.2994 11.5276C87.992 12.2833 86.6223 12.787 85.2527 13.4167C84.5679 13.7316 83.8208 13.7316 83.0737 13.9835C80.7702 14.6761 78.4044 14.6761 76.0387 14.2353C75.6029 14.1724 75.1671 13.9205 74.7313 13.7316C74.2332 13.4797 73.7352 13.1019 73.1749 12.85C72.3033 12.4092 71.8675 11.5906 71.4939 10.772C71.1204 9.95338 70.9959 9.00883 71.3694 8.00131C71.5562 8.31616 71.6807 8.56804 71.743 8.81992C71.9297 9.38665 72.0543 10.0163 72.241 10.5831C72.5523 11.4017 73.1749 12.0944 73.9842 12.5351C75.2294 13.1648 76.4122 13.7316 77.8441 13.7945C79.3383 13.8575 80.7702 13.7316 82.2644 13.4167C83.0115 13.2278 83.7585 13.1648 84.5056 12.913C85.1282 12.7241 85.7508 12.4092 86.3733 12.2203C87.1827 11.9054 87.9297 11.5276 88.6146 11.0239C89.3616 10.4571 90.2332 10.0163 91.0426 9.44962C91.7897 8.88289 92.5367 8.25319 93.2216 7.56052C93.4706 7.30864 93.5329 6.80488 93.5951 6.36409C93.8441 5.41954 93.9687 4.53796 94.2177 3.59342C94.3422 3.2156 94.4667 2.83778 94.778 2.52293C94.9648 2.33402 95.3383 2.27105 95.5873 2.27105C95.7118 2.27105 95.9609 2.5859 95.9609 2.77481C96.0231 4.41203 95.7118 5.9233 94.6535 7.24567C94.2799 7.68646 94.0932 8.37913 94.0309 9.00883C93.5951 11.6536 93.2216 14.3613 92.848 17.006C92.7858 17.5098 92.7235 18.0135 92.6613 18.6432C92.9103 18.5173 93.0971 18.5173 93.2216 18.4543C94.4044 17.8246 95.6496 17.5098 96.8947 17.132C97.9531 16.8801 99.0115 16.8171 100.07 16.8801C101.066 16.943 102 17.1949 102.871 17.6987C103.12 17.8246 103.432 17.8246 103.618 18.0135C103.992 18.2654 104.303 18.5803 104.677 18.8321C104.926 19.021 105.175 19.21 105.486 19.4618C105.735 18.7062 105.86 18.5803 106.482 18.6432C106.482 19.021 106.545 19.4618 106.482 19.8397C106.358 20.4064 106.545 20.8472 106.731 21.3509C107.043 22.0436 107.541 22.7363 107.603 23.5549C107.603 23.6179 107.665 23.6808 107.603 23.6808C107.478 23.9327 107.416 24.3735 107.229 24.4365C106.918 24.5624 106.545 24.3735 106.42 23.9957C106.296 23.7438 106.109 23.4919 105.922 23.1771C105.735 23.8068 105.611 24.4365 105.486 25.0662C105.362 25.5699 105.237 26.0107 105.175 26.5145C104.988 27.8998 104.801 29.2851 104.677 30.6705C104.615 31.2372 104.801 31.8039 104.864 32.3077C104.926 32.8115 104.864 33.3152 104.926 33.756C105.113 35.2043 105.175 36.7156 106.42 37.7861C107.043 38.3528 107.79 38.2269 108.474 37.912C109.222 37.5342 109.969 37.0304 110.591 36.5267C111.276 35.96 111.836 35.3303 112.459 34.6376C112.957 34.1338 113.455 33.5671 113.891 33.0004C114.949 31.615 115.883 30.1667 116.568 28.5925C116.817 27.9628 116.817 27.2071 116.879 26.5774C117.066 24.5624 117.315 22.6103 117.502 20.5953C117.564 19.7137 117.688 18.8951 117.813 18.0135C118 16.8801 118.124 15.7466 118.373 14.6132C118.56 13.6686 118.871 12.7241 119.12 11.8425C119.245 11.5276 119.432 11.2128 119.805 11.2757C120.179 11.3387 120.366 11.6536 120.366 11.9684C120.366 13.8575 120.366 15.6836 120.117 17.5727C119.992 18.3913 119.992 19.147 119.867 19.9656C119.618 21.288 119.369 22.6733 119.12 23.9957C118.934 24.8773 118.622 25.7588 118.373 26.7034C118.249 27.0182 118.062 27.3331 118 27.6479C117.813 28.9073 117.688 30.1667 117.564 31.4261C117.502 31.8669 117.564 32.3077 117.564 32.7485C117.813 31.9299 118.062 31.1742 118.311 30.3556C118.498 29.7889 118.809 29.2222 119.058 28.5925C119.245 28.2147 119.307 27.8368 119.494 27.459C119.992 26.4515 120.49 25.381 121.05 24.3735C121.548 23.4289 122.109 22.5474 122.669 21.6658C122.98 21.162 123.354 20.6583 123.727 20.1545C124.225 19.5248 124.661 18.8951 125.222 18.3913C125.782 17.8246 126.529 17.3838 127.089 16.8801C127.65 16.3133 128.334 16.1874 129.019 15.8726C129.953 15.4947 130.7 15.8726 131.385 16.5023C131.634 16.7541 131.759 17.2579 131.883 17.6357C132.132 18.3913 132.132 19.147 132.07 19.9656C131.945 21.5398 131.323 22.9252 130.513 24.1846C129.766 25.444 128.957 26.6404 127.961 27.7109C126.902 28.8444 125.906 30.0408 124.786 31.1742C124.35 31.678 123.79 32.0558 123.292 32.4966C121.984 33.6301 120.615 34.7006 119.307 35.771C118.809 36.1489 118.187 36.4637 117.688 36.8415C117.502 36.9675 117.315 37.2823 117.128 37.5342C118.747 38.6047 120.303 38.9825 122.046 38.1009C123.043 37.5972 124.101 37.0934 124.91 36.2748C125.844 35.3303 126.778 34.3227 127.712 33.3782C128.023 33.0633 128.397 32.7485 128.708 32.3707C128.957 32.0558 129.144 31.615 129.393 31.3002C130.078 30.4186 130.7 29.4741 131.447 28.6554C132.194 27.8998 132.381 26.9553 132.381 25.9477C132.381 25.5699 132.381 25.1921 132.443 24.8143C132.755 23.1771 133.004 21.6028 133.377 19.9656C133.688 18.3913 134.124 16.8171 134.498 15.1799C134.685 14.3613 134.996 13.6056 135.245 12.787C135.556 11.7165 135.805 10.5831 136.117 9.44962C136.366 8.4421 136.615 7.49755 136.926 6.49003C137.175 5.67142 137.611 4.85281 137.922 4.03421C138.109 3.53045 138.171 3.02669 138.42 2.5859C138.731 1.83026 139.105 1.13759 139.541 0.44492C139.914 -0.121809 140.661 -0.0588394 140.973 0.50789C141.222 0.885709 141.346 1.38947 141.346 1.89323C141.346 2.90075 141.346 3.97124 141.222 4.97875C140.973 6.93082 140.661 8.81992 140.225 10.772C139.976 12.1573 139.603 13.5427 139.167 14.865C138.731 16.2504 138.171 17.5727 137.611 18.8951C136.926 20.5323 136.179 22.1695 135.369 23.8068C134.934 24.6883 134.373 25.5699 133.875 26.3885C133.315 27.2701 133.004 28.2147 133.066 29.2851C133.066 30.4186 133.004 31.4891 133.066 32.6226C133.066 33.4412 133.19 34.3227 133.253 35.1413C133.315 36.4007 133.626 37.6601 134.124 38.8566C134.498 39.6752 134.996 40.4308 135.681 40.9975C135.93 41.1865 136.303 41.3754 136.677 41.4383C138.109 41.7532 139.541 41.6272 140.91 41.1235C142.84 40.4938 144.77 39.8011 146.762 39.3603C148.257 39.0455 149.813 38.7936 151.432 39.1085C152.428 39.2974 153.362 39.6122 154.295 39.99C155.478 40.4938 156.537 41.1865 157.595 41.8791C158.653 42.5718 159.712 43.3274 160.77 44.0201C161.58 44.5868 162.389 45.1536 163.198 45.5944C163.945 46.0351 164.755 46.35 165.564 46.6648C167.058 47.1686 168.552 47.5464 170.046 47.9872C171.105 48.3021 172.225 48.491 173.346 48.6799C174.155 48.8058 174.965 48.8688 175.774 49.1207C176.023 49.1836 176.21 49.3725 176.521 49.6244C176.21 49.6244 176.023 49.6244 175.836 49.5615C175.089 49.4985 174.404 49.3725 173.657 49.3096C172.163 49.0577 170.669 48.8688 169.113 48.6169C167.681 48.365 166.311 47.9242 165.004 47.4205C163.136 46.7278 161.393 45.7833 159.774 44.5868C158.529 43.7053 157.222 42.9496 155.976 42.068C155.043 41.4383 154.109 40.9346 152.988 40.5568C152.179 40.3049 151.369 40.053 150.56 39.9271C149.626 39.8011 148.692 39.9271 147.821 40.1789C146.513 40.5568 145.144 40.9346 143.836 41.3124C142.902 41.5643 142.031 41.8791 141.097 42.194C140.786 42.3199 140.412 42.2569 140.039 42.3199C139.852 42.3829 139.665 42.5088 139.478 42.5088C138.669 42.5718 137.797 42.6977 136.988 42.5718C136.054 42.5088 135.245 42.0051 134.56 41.3754C133.19 40.053 132.568 38.3528 132.257 36.5897C132.008 35.1413 132.008 33.6301 131.945 32.1188C131.883 31.3632 131.945 30.5445 131.945 29.663C131.759 29.8519 131.634 29.9148 131.51 30.0408C130.7 31.0483 129.953 32.1188 129.144 33.1263C128.272 34.1968 127.338 35.2673 126.28 36.2118C125.222 37.2194 124.039 38.1009 122.669 38.7306C120.926 39.4863 119.183 39.6122 117.502 38.6677C117.439 38.6047 117.377 38.6047 117.315 38.6047C117.315 38.6047 117.253 38.6047 117.19 38.6047C117.19 38.7936 117.128 38.9825 117.128 39.1714C117.004 41.1235 116.941 43.0756 116.879 45.0276C116.817 46.5389 116.817 48.0502 116.755 49.6244C116.755 50.2541 116.692 50.8838 116.692 51.5135C116.63 52.584 116.568 53.5915 116.443 54.662C116.381 55.2287 116.132 55.7955 115.883 56.3622C115.696 56.803 115.136 56.803 114.887 56.3622C114.7 56.0474 114.638 55.6695 114.576 55.2917C114.451 54.662 114.202 54.0323 114.327 53.4026C114.389 53.1507 114.264 52.7729 114.202 52.521C114.14 52.2692 114.14 52.0173 114.14 51.7024C114.264 49.7504 114.327 47.7983 114.513 45.8462C114.7 44.272 114.949 42.6977 115.26 41.1235C115.447 40.3049 115.696 39.4233 115.945 38.6047C116.008 38.2898 116.194 37.912 115.883 37.5342C115.821 37.4083 115.821 37.1564 115.883 37.0304C116.257 36.5897 116.319 36.0859 116.319 35.5192C116.319 34.9524 116.381 34.3227 116.443 33.756C116.506 32.6855 116.568 31.615 116.63 30.3556C116.319 30.9224 116.132 31.3632 115.821 31.741C115.136 32.6855 114.513 33.6301 113.766 34.5117C113.206 35.2043 112.583 35.771 111.961 36.4007C111.089 37.2823 110.031 38.038 108.91 38.5417C107.976 38.9195 107.043 39.0455 106.171 38.5417C105.486 38.2269 104.988 37.5972 104.801 36.8415C104.677 36.4007 104.428 36.0229 104.366 35.5821C103.93 33.756 103.867 31.9299 103.992 30.1038C103.992 29.9778 103.992 29.9148 103.992 29.7259C103.867 29.8519 103.743 29.8519 103.743 29.9148C103.743 30.6705 103.183 31.1113 102.871 31.741C102.56 32.3077 102.373 32.9374 102 33.5041C101.564 34.2598 101.128 34.9524 100.63 35.6451C100.132 36.2748 99.5718 36.8415 99.0114 37.4083C98.2021 38.1639 97.0815 38.4788 96.0854 37.7861C95.7741 37.5972 95.5251 37.2194 95.3383 36.9045C95.0893 36.4007 94.8402 35.897 94.778 35.3932C94.6535 34.5746 94.4667 33.756 94.529 32.8744C94.6535 31.615 94.7157 30.2927 95.027 29.0962C95.3383 28.0257 95.6496 26.9553 96.0231 25.8848C96.3344 25.0032 96.708 24.1846 97.0815 23.366C97.2683 22.9252 97.6418 22.5474 97.8286 22.1066C98.4511 20.9731 99.136 19.8397 100.008 18.8951C100.319 18.5173 100.755 18.2024 101.066 17.8246C100.941 17.7616 100.755 17.6357 100.506 17.6357C99.7585 17.5727 98.9492 17.5098 98.2021 17.5727C97.5796 17.6357 96.8947 17.8246 96.2721 18.0765C95.2138 18.4543 94.2177 18.8951 93.1593 19.2729C92.7235 19.4618 92.4745 19.7767 92.4122 20.2175C92.1632 21.9177 91.9764 23.6179 91.7274 25.381C91.6651 26.0107 91.4784 26.7034 91.3539 27.3331C91.2916 27.6479 91.3539 27.8998 91.2916 28.2147C91.1671 29.2851 90.9803 30.2927 90.8558 31.3632C90.7936 32.1188 90.7313 32.8744 90.669 33.6301C90.6068 34.5117 90.4823 35.3932 90.42 36.2118C90.2332 37.7861 90.1087 39.4233 89.922 40.9975C89.6729 42.8866 89.4239 44.7757 89.1749 46.6648C89.1126 47.1056 89.1126 47.5464 89.0504 47.9242C88.8013 50.1912 88.5523 52.521 87.992 54.725C87.6807 55.9214 87.4317 57.1178 87.0581 58.3143C86.6223 59.6996 86.2488 61.085 85.6262 62.3444C84.9414 63.7927 84.3188 65.241 83.0115 66.3115C81.5795 67.4449 80.5834 67.1301 79.5251 65.8707C78.5912 64.7372 77.9687 63.3519 77.5951 61.9036C77.2216 60.5182 76.9725 59.0699 76.7235 57.6846C76.599 56.866 76.6613 56.0474 76.599 55.2288C76.5368 54.5991 76.4745 53.9694 76.4122 53.2767C76.4122 52.71 76.4122 52.0803 76.4745 51.5135C76.5367 50.2541 76.5368 48.9947 76.599 47.6724C76.599 47.3575 76.6613 46.9797 76.7235 46.6648C76.4745 46.5389 76.4745 46.413 76.4745 46.2241ZM13.7819 47.4205C13.9064 47.2945 14.0309 47.2316 14.0932 47.1686C14.2799 46.9797 14.4045 46.7278 14.529 46.5389C15.0893 45.7203 15.7118 44.9017 16.2722 44.0201C16.4589 43.7682 16.4589 43.5793 16.0854 43.5163C16.0231 43.5163 15.9609 43.4534 15.8986 43.3904C14.9648 42.5088 14.1554 41.5013 13.7819 40.3049C13.2216 38.6677 12.848 37.0304 12.4122 35.3303C12.2255 34.5117 12.1632 33.693 12.1632 32.8744C12.101 31.9299 12.101 31.0483 12.101 30.1038C12.101 28.9073 12.101 27.7109 12.2255 26.5774C12.35 24.8143 12.599 23.0511 12.7858 21.288C12.9103 20.2175 13.0971 19.147 13.2838 18.0765C13.4706 17.132 13.6574 16.1244 13.9064 15.1799C14.1554 14.1094 14.529 12.9759 14.8403 11.9054C15.027 11.2757 15.276 10.709 15.4006 10.0793C15.7118 9.0718 15.8986 8.06428 16.4589 7.11973C16.5834 6.93082 16.708 6.74191 16.7702 6.553C17.0192 5.48251 17.5173 4.53796 18.1399 3.65639C18.5134 3.08966 18.3889 2.90075 17.7663 2.77481C16.8325 2.5859 15.8986 2.5859 14.9648 2.83778C13.9687 3.08966 13.0971 3.46748 12.2255 4.03421C11.7274 4.34906 11.3539 4.85281 10.9181 5.23063C10.0465 6.11221 9.36165 7.11973 8.80134 8.19022C8.49006 8.81992 8.24103 9.51259 7.992 10.1423C7.74298 10.772 7.43169 11.4017 7.18266 12.0944C6.80912 12.9759 6.49784 13.9205 6.18656 14.8021C5.93753 15.4318 5.6885 16.0615 5.50173 16.6912C5.06593 18.2024 4.69239 19.7137 4.25659 21.225C3.8208 22.6103 3.44726 23.9957 3.01146 25.444C2.9492 25.6959 2.9492 25.9477 2.88694 26.1996C2.32663 28.1517 1.89084 30.0408 1.64181 32.0558C1.57955 32.6855 1.39278 33.2523 1.33052 33.882C1.20601 35.1413 1.14375 36.4007 1.14375 37.6601C1.0815 38.4788 1.0815 39.2974 1.14375 40.116C1.20601 40.8716 1.26827 41.5643 1.39278 42.3199C1.5173 43.0756 1.64181 43.8942 1.89084 44.5868C2.13986 45.4684 2.5134 46.35 2.88694 47.2316C3.385 48.5539 4.13208 49.6244 5.19045 50.506C5.75076 50.9468 6.49784 51.3876 7.18266 51.5135C8.17877 51.7654 9.17488 51.3876 10.1087 50.9468C11.1671 50.443 12.0387 49.6244 12.7235 48.7429C12.9725 48.365 13.0971 48.1131 12.9103 47.6724C12.7235 47.1686 12.5367 46.6648 12.6613 46.1611C12.6613 46.0981 12.6613 46.0351 12.599 46.0351C12.2255 45.6573 12.4745 45.3425 12.6613 44.9647C13.2838 45.5944 13.4706 46.4759 13.7819 47.4205ZM77.6574 43.9571C77.7196 43.9571 77.7196 44.0201 77.7819 44.0201C77.9687 43.9571 78.2177 43.8942 78.3422 43.7682C78.9648 43.3274 79.5251 42.8867 80.1476 42.4459C81.1438 41.7532 82.2021 41.1235 83.1982 40.4308C84.0076 39.8641 84.8792 39.3603 85.7508 38.7936C86.062 38.6047 86.3733 38.5417 86.7469 38.4158C86.8091 38.4158 86.9959 38.4788 87.0581 38.5417C87.0581 38.6047 86.9959 38.7306 86.9336 38.7936C86.1243 39.3603 85.315 39.9271 84.4434 40.4938C82.8869 41.6272 81.3305 42.7607 79.7741 43.8312C79.1515 44.272 78.4667 44.7128 77.7819 45.1536C77.6574 45.2165 77.5329 45.4054 77.5329 45.5314C77.4706 46.413 77.4083 47.3575 77.3461 48.2391C77.2838 49.4985 77.2216 50.7579 77.1593 51.9543C77.1593 52.647 77.1593 53.4026 77.2216 54.0953C77.2838 55.1658 77.2838 56.2363 77.4083 57.2438C77.5329 58.4402 77.7819 59.6366 78.0309 60.7701C78.1554 61.4628 78.2799 62.1554 78.5912 62.8481C78.9648 63.6667 79.4006 64.4224 79.8986 65.115C80.4589 65.8707 81.1437 66.3744 82.0776 65.3669C82.4511 64.9891 82.7624 64.6113 83.0115 64.2335C83.634 63.2259 84.1943 62.2184 84.6924 61.085C85.1282 60.0145 85.5017 58.881 85.813 57.6846C86.2488 56.0474 86.6846 54.3472 86.9959 52.647C87.3694 50.6949 87.6185 48.7428 87.8052 46.7908C87.992 45.1536 88.3033 43.5163 88.4278 41.8162C88.6146 39.1714 88.9881 36.5267 89.2994 33.882C89.4239 32.7485 89.6107 31.615 89.7352 30.4186C89.922 28.7814 90.0465 27.0812 90.2955 25.444C90.5445 23.6808 90.8558 21.9177 91.1048 20.1545C90.9181 20.1545 90.8558 20.2804 90.7935 20.2804C88.8636 21.4769 87.3694 23.1141 85.813 24.7513C84.9414 25.6959 84.1321 26.7663 83.5095 27.8998C82.6379 29.4111 81.6418 30.8594 81.0192 32.5596C80.7079 33.4412 80.2099 34.2598 79.8986 35.1413C79.4006 36.5267 78.9025 37.975 78.529 39.4233C78.2177 41.0605 77.9687 42.5088 77.6574 43.9571ZM13.2216 26.1367H13.1593C13.0971 27.459 13.0348 28.7814 13.0971 30.1038C13.0971 31.4891 13.2216 32.8744 13.3461 34.2598C13.4706 35.4562 13.6574 36.6526 13.9064 37.8491C14.3422 39.6122 15.027 41.2494 16.2099 42.5718C16.3344 42.6977 16.5834 42.8237 16.5834 42.8237C16.8947 42.5088 17.3305 42.194 17.455 41.8162C17.5795 41.4383 17.6418 41.1235 17.8286 40.8086C18.3266 40.053 18.7624 39.2344 19.136 38.4158C19.634 37.3453 20.0076 36.2118 20.4434 35.1413C20.8792 33.9449 21.2527 32.7485 21.6262 31.5521C21.9998 30.3556 22.3733 29.1592 22.6846 27.9628C22.9959 26.8923 23.1827 25.7588 23.4317 24.6254C23.6185 23.6179 23.8675 22.6103 23.992 21.6028C24.1165 20.7842 24.1788 19.9656 24.241 19.147C24.3033 18.6432 24.4278 18.1395 24.4278 17.6357C24.5523 16.0615 24.6768 14.4242 24.7391 12.85C24.8013 12.3462 24.8013 11.7795 24.8013 11.2757C24.8013 10.646 24.7391 9.95338 24.6768 9.32368C24.6146 8.4421 24.5523 7.49755 24.3655 6.61597C24.1788 5.73439 23.9297 4.85281 23.6185 4.03421C23.3694 3.34154 22.9959 2.71184 22.6224 2.08214C22.1866 1.45244 21.564 1.3265 21.0037 1.57838C20.6301 1.76729 20.2566 1.9562 19.9453 2.27105C19.8208 2.39699 19.4473 2.5859 19.6963 2.90075C20.0698 3.40451 20.4434 3.90827 20.6924 4.475C20.9414 4.97875 21.1904 5.54548 21.3772 6.11221C21.5017 6.42706 21.4395 6.67894 21.0659 6.80488C20.9414 6.86785 20.8169 6.93082 20.6301 6.93082C20.4434 6.93082 20.1943 6.93082 20.1321 6.86785C20.0698 6.74191 20.1321 6.49003 20.1321 6.30112C20.1321 6.04924 20.2566 5.79736 20.1321 5.60845C19.8831 4.97875 19.5095 4.41203 19.1982 3.78233C19.136 3.65639 18.9492 3.59342 18.8869 3.59342C18.9492 3.59342 18.8247 3.71936 18.7624 3.8453C18.3266 4.91578 17.8908 5.9233 17.455 6.99379C17.0815 7.93834 16.708 8.88289 16.3967 9.82744C16.2099 10.3312 16.0854 10.8979 15.8986 11.4017C15.5873 12.4092 15.3383 13.3538 15.027 14.3613C15.027 14.5502 15.027 14.7391 14.9648 14.928C14.778 15.6207 14.529 16.3133 14.4045 17.069C14.1554 18.7062 13.9687 20.4064 13.7196 22.0436C13.5951 23.4289 13.4083 24.7513 13.2216 26.1367ZM38.062 34.6376C38.1243 34.6376 38.1243 34.6376 38.1866 34.6376C38.3733 34.3857 38.5601 34.1968 38.6846 33.9449C39.2449 32.8744 39.743 31.8039 40.241 30.7335C40.6768 29.8519 41.1749 28.9703 41.6107 28.0257C42.1087 26.8923 42.5445 25.6959 43.0426 24.4994C43.3539 23.7438 43.7274 22.9882 43.9764 22.1695C44.2877 21.0991 44.7858 20.1545 45.0348 19.084C45.2216 18.2654 45.5329 17.5098 45.7819 16.7541C46.0309 15.9355 46.3422 15.1799 46.529 14.3613C46.778 13.2908 47.027 12.2203 47.1515 11.1498C47.3383 9.63853 47.4628 8.12725 47.5873 6.553C47.7118 5.41954 47.3383 4.34906 47.1515 3.2156C47.027 2.71184 46.7157 2.39699 46.4045 2.01917C46.0932 1.70432 45.7819 1.76729 45.4706 2.14511C45.2838 2.39699 45.0348 2.5859 44.848 2.83778C44.5368 3.2156 44.101 3.59342 43.8519 4.03421C43.2294 5.2936 42.6068 6.553 42.1087 7.87537C41.4239 9.63853 40.8636 11.4017 40.3033 13.2278C39.8675 14.6761 39.6185 16.1244 39.3072 17.5727C39.1204 18.3284 38.9959 19.147 38.8714 19.9026C38.6846 21.0361 38.4978 22.1695 38.3733 23.303C38.1866 24.8773 38.062 26.5145 37.9375 28.1517C37.8753 29.537 37.8753 30.9853 37.8753 32.3707C37.8753 33.1263 37.9998 33.882 38.062 34.6376ZM104.677 22.6733C104.801 21.8547 104.677 21.162 104.179 20.4694C103.867 20.0286 103.556 19.5878 103.183 19.084C102.747 18.3913 102.124 18.1395 101.377 18.5803C100.879 18.8321 100.506 19.2729 100.132 19.6507C99.2605 20.4694 98.7002 21.5398 98.1399 22.5474C97.5795 23.6179 97.1438 24.7513 96.6457 25.8218C95.8986 27.3331 95.6496 28.9703 95.4006 30.6075C95.2138 31.741 95.276 32.8744 95.2138 34.0079C95.2138 34.3227 95.1515 34.6376 95.2138 34.8895C95.4006 35.4562 95.6496 36.0859 95.8986 36.5897C96.2099 37.2823 96.957 37.5342 97.5173 37.0304C98.2021 36.5267 98.8247 35.897 99.3227 35.2673C99.8208 34.7006 100.194 34.0079 100.63 33.3782C100.941 32.8744 101.315 32.4336 101.564 31.8669C102.062 30.9224 102.436 29.9148 102.871 28.9073C103.245 28.0887 103.556 27.2701 103.867 26.4515C104.054 25.9477 104.054 25.444 104.179 24.8773C104.303 24.1846 104.49 23.4289 104.677 22.6733ZM117.19 35.7081C117.253 35.771 117.253 35.771 117.315 35.834C117.564 35.6451 117.813 35.4562 118.124 35.2673C119.12 34.5117 120.117 33.819 121.113 33.0633C122.856 31.615 124.537 30.0408 126.093 28.4036C126.902 27.459 127.774 26.5145 128.521 25.507C129.331 24.3735 130.078 23.1141 130.576 21.7917C130.7 21.5398 130.825 21.288 130.887 21.0361C131.011 20.4694 131.011 19.8397 131.074 19.2729C131.198 18.3284 130.949 17.5098 130.327 16.7541C130.264 16.6282 130.14 16.5652 129.953 16.5023C129.081 16.3133 128.334 16.6282 127.65 17.006C127.089 17.3209 126.591 17.8246 126.093 18.2654C125.72 18.5803 125.346 18.8951 125.097 19.2729C124.225 20.4064 123.416 21.5398 122.607 22.6733C121.611 24.1846 120.739 25.7588 120.117 27.522C119.992 27.8998 119.805 28.2776 119.618 28.6554C119.12 29.7889 118.622 30.9224 118.187 32.0558C117.938 32.6855 117.751 33.3782 117.626 34.0709C117.439 34.5746 117.315 35.1413 117.19 35.7081ZM133.004 25.1291C133.066 25.1291 133.19 25.1921 133.253 25.1921C133.377 24.7513 133.502 24.3735 133.688 23.9957C134.249 22.9252 134.871 21.8547 135.432 20.7842C135.618 20.4064 135.867 20.0286 135.992 19.6507C136.49 18.3913 136.926 17.132 137.362 15.8726C137.735 14.8021 138.046 13.7945 138.42 12.7241C138.545 12.2833 138.607 11.8425 138.731 11.4017C138.918 10.5201 139.229 9.57556 139.354 8.69398C139.603 7.05676 139.79 5.48251 139.976 3.8453C140.101 2.96372 140.039 2.01917 139.852 1.01165C139.727 1.13759 139.665 1.20056 139.603 1.3265C139.478 1.57838 139.354 1.76729 139.292 2.01917C139.043 2.52293 138.856 3.08966 138.607 3.59342C138.545 3.78233 138.482 4.03421 138.358 4.16015C137.922 4.53797 137.86 5.04172 137.735 5.48251C137.548 6.23815 137.362 6.99379 137.175 7.74943C136.926 8.63101 136.677 9.44962 136.428 10.3312C136.117 11.5906 135.743 12.85 135.432 14.1094C135.307 14.4872 135.183 14.865 135.12 15.2429C134.809 16.3763 134.56 17.5098 134.249 18.6432C134.062 19.4618 133.875 20.3434 133.688 21.162C133.502 22.4844 133.253 23.8068 133.004 25.1291ZM115.634 42.6977C115.572 42.6977 115.51 42.6977 115.447 42.6977C115.447 42.7607 115.385 42.8237 115.385 42.9496C115.26 44.3979 115.074 45.7833 114.949 47.2316C114.825 48.3021 114.7 49.3725 114.576 50.443C114.513 50.8838 114.513 51.3876 114.513 51.8284C114.513 52.4581 114.576 53.0248 114.638 53.5915C114.7 54.0323 114.762 54.4731 114.825 54.8509C114.887 54.8509 114.887 54.8509 114.949 54.8509C115.572 50.8209 115.385 46.7278 115.634 42.6977ZM119.058 13.7316C118.996 13.7316 118.996 13.7316 118.934 13.7316C118.498 17.2579 118.062 20.7842 117.626 24.3105C118.249 23.8068 119.432 15.0539 119.058 13.7316Z" fill="black"/>
</svg>
