<svg width="60" height="63" viewBox="0 0 60 63" fill="none" xmlns="http://www.w3.org/2000/svg">
<g opacity="0.5" clip-path="url(#clip0)">
<path d="M59.5 33.7528C59.4595 49.7941 46.1885 62.8027 29.9392 62.7628C13.6899 62.7229 0.479762 49.6943 0.500023 33.7329C0.520284 17.4921 13.8115 4.70293 30.0811 4.76278C46.614 4.82264 59.5 17.8113 59.5 33.7528ZM30.0203 57.8147C43.1089 57.8347 54.5563 47.5595 54.5361 33.7129C54.5158 20.0459 43.2912 9.63103 29.9595 9.67094C16.5062 9.69089 5.42344 20.2654 5.46396 33.7728C5.50448 47.779 17.0938 57.8746 30.0203 57.8147Z" fill="#8697A9"/>
<path d="M31.702 25.9525C31.702 28.1671 31.6818 30.0825 31.7223 31.9779C31.7223 32.1775 32.0465 32.4368 32.2694 32.5366C35.0856 33.6938 36.7268 35.7289 36.747 38.7616C36.7673 41.8341 35.1464 43.9091 32.2694 45.0863C32.006 45.186 31.7426 45.625 31.702 45.9442C31.5805 47.2211 30.9929 47.9594 29.9393 47.9793C28.9466 47.9993 28.2172 47.2411 28.1766 45.9642C28.1564 45.3656 27.9132 45.1062 27.3865 44.8868C25.5427 44.1486 24.0434 42.9315 22.7062 41.495C21.9768 40.7168 21.997 39.7591 22.6656 39.0808C23.3545 38.4024 24.3878 38.4224 25.1983 39.1406C26.1303 39.9387 27.0623 40.7168 28.1766 41.6745C28.1766 39.4 28.1766 37.3849 28.1766 35.3498C26.0087 34.6515 24.4081 33.2948 23.6179 31.12C22.4022 27.7881 24.1042 24.1768 27.508 22.82C27.974 22.6405 28.2779 22.4809 28.2779 21.8624C28.2577 20.6253 28.9668 19.8273 29.9799 19.8273C30.9929 19.8273 31.6615 20.6453 31.702 21.8624C31.702 22.0619 31.702 22.2614 31.702 22.5008C33.6876 23.0994 35.4301 24.0571 36.8686 25.4936C37.7804 26.4114 37.8817 27.3491 37.1523 28.1073C36.4634 28.8255 35.5922 28.7457 34.5589 27.9676C33.7282 27.3292 32.8164 26.7306 31.702 25.9525ZM31.7426 41.5548C32.7556 41.1957 33.3837 40.1382 33.3432 38.8214C33.3229 37.6044 32.7354 36.7065 31.7426 36.3873C31.7426 38.1231 31.7426 39.839 31.7426 41.5548ZM28.2577 26.3715C26.3329 27.9676 26.4139 30.7609 28.2577 31.539C28.2577 29.863 28.2577 28.207 28.2577 26.3715Z" fill="#8697A9"/>
</g>
<g clip-path="url(#clip1)">
<path d="M59.5 29.7528C59.4595 45.7941 46.1885 58.8027 29.9392 58.7628C13.6899 58.7229 0.479762 45.6943 0.500023 29.7329C0.520284 13.4921 13.8115 0.702927 30.0811 0.762782C46.614 0.822638 59.5 13.8113 59.5 29.7528ZM30.0203 53.8147C43.1089 53.8347 54.5563 43.5595 54.5361 29.7129C54.5158 16.0459 43.2912 5.63103 29.9595 5.67094C16.5062 5.69089 5.42344 16.2654 5.46396 29.7728C5.50448 43.779 17.0938 53.8746 30.0203 53.8147Z" fill="white"/>
<path d="M31.702 21.9525C31.702 24.1671 31.6818 26.0825 31.7223 27.9779C31.7223 28.1775 32.0465 28.4368 32.2694 28.5366C35.0856 29.6938 36.7268 31.7289 36.747 34.7616C36.7673 37.8341 35.1464 39.9091 32.2694 41.0863C32.006 41.186 31.7426 41.625 31.702 41.9442C31.5805 43.2211 30.9929 43.9594 29.9393 43.9793C28.9466 43.9993 28.2172 43.2411 28.1766 41.9642C28.1564 41.3656 27.9132 41.1062 27.3865 40.8868C25.5427 40.1486 24.0434 38.9315 22.7062 37.495C21.9768 36.7168 21.997 35.7591 22.6656 35.0808C23.3545 34.4024 24.3878 34.4224 25.1983 35.1406C26.1303 35.9387 27.0623 36.7168 28.1766 37.6745C28.1766 35.4 28.1766 33.3849 28.1766 31.3498C26.0087 30.6515 24.4081 29.2948 23.6179 27.12C22.4022 23.7881 24.1042 20.1768 27.508 18.82C27.974 18.6405 28.2779 18.4809 28.2779 17.8624C28.2577 16.6253 28.9668 15.8273 29.9799 15.8273C30.9929 15.8273 31.6615 16.6453 31.702 17.8624C31.702 18.0619 31.702 18.2614 31.702 18.5008C33.6876 19.0994 35.4301 20.0571 36.8686 21.4936C37.7804 22.4114 37.8817 23.3491 37.1523 24.1073C36.4634 24.8255 35.5922 24.7457 34.5589 23.9676C33.7282 23.3292 32.8164 22.7306 31.702 21.9525ZM31.7426 37.5548C32.7556 37.1957 33.3837 36.1382 33.3432 34.8214C33.3229 33.6044 32.7354 32.7065 31.7426 32.3873C31.7426 34.1231 31.7426 35.839 31.7426 37.5548ZM28.2577 22.3715C26.3329 23.9676 26.4139 26.7609 28.2577 27.539C28.2577 25.863 28.2577 24.207 28.2577 22.3715Z" fill="white"/>
</g>
<defs>
<clipPath id="clip0">
<rect width="59" height="58" fill="white" transform="translate(0.5 4.76367)"/>
</clipPath>
<clipPath id="clip1">
<rect width="59" height="58" fill="white" transform="translate(0.5 0.763672)"/>
</clipPath>
</defs>
</svg>
