<svg width="60" height="63" viewBox="0 0 60 63" fill="none" xmlns="http://www.w3.org/2000/svg">
<g opacity="0.5" clip-path="url(#clip0)">
<path d="M59.5 33.3008C59.4595 49.3421 46.1885 62.3507 29.9392 62.3108C13.6899 62.2709 0.479762 49.2423 0.500023 33.2808C0.520284 17.04 13.8115 4.2509 30.0811 4.31076C46.614 4.37061 59.5 17.3593 59.5 33.3008ZM30.0203 57.3627C43.1089 57.3827 54.5563 47.1075 54.5361 33.2609C54.5158 19.5939 43.2912 9.17901 29.9595 9.21891C16.5062 9.23886 5.42344 19.8133 5.46396 33.3207C5.50448 47.3269 17.0938 57.4226 30.0203 57.3627Z" fill="#72926E"/>
</g>
<g clip-path="url(#clip1)">
<path d="M59.5 29.3008C59.4595 45.3421 46.1885 58.3507 29.9392 58.3108C13.6899 58.2709 0.479762 45.2423 0.500023 29.2808C0.520284 13.04 13.8115 0.250901 30.0811 0.310756C46.614 0.370612 59.5 13.3593 59.5 29.3008ZM30.0203 53.3627C43.1089 53.3827 54.5563 43.1075 54.5361 29.2609C54.5158 15.5939 43.2912 5.17901 29.9595 5.21891C16.5062 5.23886 5.42344 15.8133 5.46396 29.3207C5.50448 43.3269 17.0938 53.4226 30.0203 53.3627Z" fill="white"/>
</g>
<path d="M43.5737 18.4432C43.5122 18.4398 43.4473 18.4432 43.3859 18.4432H15.8614C15.7316 18.4432 15.6121 18.4432 15.4789 18.4705C14.9427 18.5764 14.6626 19.0784 14.6626 19.5839V42.4396C14.6626 42.5762 14.6626 42.7128 14.6626 42.8528C14.666 43.4573 15.0895 43.9355 15.7077 43.9594C15.9434 43.9697 16.1824 43.9594 16.4215 43.9594H20.7898C20.7898 43.7306 20.7932 43.5052 20.7932 43.2763C20.7932 43.1636 20.7966 43.0509 20.7966 42.9382V32.9312C20.3902 32.9346 19.9803 32.9551 19.5773 32.9312C19.2221 32.9107 18.9899 32.6511 18.983 32.3027C18.9796 32.2174 18.983 32.1354 18.983 32.05V20.1509H23.9729V30.1306C23.9729 30.8478 23.99 31.5719 23.9729 32.2891C23.9661 32.634 23.7407 32.9073 23.382 32.9243C23.242 32.9312 23.0986 32.9243 22.9585 32.9243H22.1662C22.1662 33.2488 22.1593 33.5733 22.1593 33.8943V43.956H28.9491C28.9491 43.7272 28.9525 43.5017 28.9525 43.2729C28.9525 43.1602 28.9525 43.0475 28.9525 42.9348V32.9278C28.5461 32.9312 28.1362 32.9517 27.7332 32.9278C27.378 32.9073 27.1458 32.6477 27.1389 32.2993C27.1389 32.2139 27.1389 32.132 27.1389 32.0466V20.1509H32.1288V30.1306C32.1288 30.8478 32.1459 31.5719 32.1288 32.2891C32.122 32.634 31.8966 32.9073 31.5379 32.9243C31.3979 32.9312 31.2545 32.9243 31.1144 32.9243H30.3221C30.3221 33.2488 30.3152 33.5733 30.3152 33.8943V43.956H37.105C37.105 43.7272 37.1084 43.5017 37.1084 43.2729C37.1084 43.1602 37.1084 43.0475 37.1084 42.9348V32.9278C36.702 32.9312 36.2921 32.9517 35.8891 32.9278C35.5339 32.9073 35.3017 32.6477 35.2949 32.2993C35.2949 32.2139 35.2949 32.132 35.2949 32.0466V20.1509H40.2847V30.1306C40.2847 30.8478 40.3018 31.5719 40.2847 32.2891C40.2779 32.634 40.0525 32.9073 39.6939 32.9243C39.5538 32.9312 39.4104 32.9243 39.2703 32.9243H38.478C38.478 33.2488 38.4711 33.5733 38.4711 33.8943V43.956H43.4883C43.5122 43.956 43.5361 43.956 43.5601 43.956C43.6113 43.956 43.6591 43.9492 43.7069 43.9389C44.2534 43.8399 44.6017 43.3959 44.6017 42.8255V19.5566C44.6154 18.9521 44.1919 18.4671 43.5737 18.4432Z" fill="#98B095" fill-opacity="0.7"/>
<path d="M44.3096 16.6607C44.2481 16.6573 44.1832 16.6607 44.1217 16.6607H16.5972C16.4674 16.6607 16.3479 16.6607 16.2147 16.688C15.6785 16.7939 15.3984 17.296 15.3984 17.8014V40.6571C15.3984 40.7937 15.3984 40.9303 15.3984 41.0704C15.4019 41.6749 15.8254 42.153 16.4435 42.1769C16.6792 42.1872 16.9183 42.1769 17.1574 42.1769H21.5256C21.5256 41.9481 21.529 41.7227 21.529 41.4939C21.529 41.3812 21.5324 41.2684 21.5324 41.1557V31.1487C21.126 31.1521 20.7162 31.1726 20.3132 31.1487C19.958 31.1282 19.7257 30.8686 19.7189 30.5203C19.7155 30.4349 19.7189 30.3529 19.7189 30.2675V18.3684H24.7087V28.3481C24.7087 29.0653 24.7258 29.7894 24.7087 30.5066C24.7019 30.8516 24.4765 31.1248 24.1179 31.1419C23.9778 31.1487 23.8344 31.1419 23.6944 31.1419H22.902C22.902 31.4663 22.8952 31.7908 22.8952 32.1118V42.1735H29.6849C29.6849 41.9447 29.6883 41.7193 29.6883 41.4904C29.6883 41.3777 29.6883 41.265 29.6883 41.1523V31.1453C29.2819 31.1487 28.8721 31.1692 28.4691 31.1453C28.1139 31.1248 27.8816 30.8652 27.8748 30.5169C27.8748 30.4315 27.8748 30.3495 27.8748 30.2641V18.3684H32.8646V28.3481C32.8646 29.0653 32.8817 29.7894 32.8646 30.5066C32.8578 30.8516 32.6324 31.1248 32.2738 31.1419C32.1338 31.1487 31.9903 31.1419 31.8503 31.1419H31.0579C31.0579 31.4663 31.0511 31.7908 31.0511 32.1118V42.1735H37.8408C37.8408 41.9447 37.8443 41.7193 37.8443 41.4904C37.8443 41.3777 37.8443 41.265 37.8443 41.1523V31.1453C37.4378 31.1487 37.028 31.1692 36.625 31.1453C36.2698 31.1248 36.0375 30.8652 36.0307 30.5169C36.0307 30.4315 36.0307 30.3495 36.0307 30.2641V18.3684H41.0206V28.3481C41.0206 29.0653 41.0376 29.7894 41.0206 30.5066C41.0137 30.8516 40.7883 31.1248 40.4297 31.1419C40.2897 31.1487 40.1462 31.1419 40.0062 31.1419H39.2138C39.2138 31.4663 39.207 31.7908 39.207 32.1118V42.1735H44.2242C44.2481 42.1735 44.272 42.1735 44.2959 42.1735C44.3471 42.1735 44.3949 42.1667 44.4428 42.1564C44.9892 42.0574 45.3376 41.6134 45.3376 41.043V17.7741C45.3512 17.1696 44.9277 16.6846 44.3096 16.6607Z" fill="white"/>
<defs>
<clipPath id="clip0">
<rect width="59" height="58" fill="white" transform="translate(0.5 4.31152)"/>
</clipPath>
<clipPath id="clip1">
<rect width="59" height="58" fill="white" transform="translate(0.5 0.311523)"/>
</clipPath>
</defs>
</svg>
