<svg width="61" height="63" viewBox="0 0 61 63" fill="none" xmlns="http://www.w3.org/2000/svg">
<g opacity="0.5" clip-path="url(#clip0)">
<path d="M0.5 32.6398C0.5 16.4098 13.8986 3.29867 30.5 3.24091C46.8957 3.18315 60.5294 16.5831 60.5294 32.6976C60.5 48.9276 46.9545 62.1832 30.3825 62.212C13.9868 62.2698 0.5 48.8988 0.5 32.6398ZM30.5 8.61242C16.8957 8.61242 5.96523 19.3554 5.96523 32.6976C5.96523 46.0686 16.8957 56.8116 30.5 56.8116C43.9868 56.8116 54.976 46.0109 55.0054 32.7842C55.0054 19.4421 44.0455 8.6413 30.5 8.61242Z" fill="#5C5A6D"/>
<path d="M30.4706 33.2179C30.4706 32.3515 30.4706 31.7162 30.4706 31.052C30.4706 27.2977 30.4706 23.5434 30.4706 19.7891C30.4706 18.5184 30.7938 17.3921 32.1455 16.8723C33.4677 16.3814 34.4961 16.8146 35.4364 17.7387C37.9927 20.2512 40.5784 22.7637 43.1053 25.2761C44.0456 26.2003 44.3982 27.3554 43.7517 28.5684C43.1935 29.6369 42.1944 30.2433 40.9603 29.9546C40.2845 29.8102 39.6087 29.4059 39.1092 28.9438C38.1102 28.0485 37.1993 27.0089 35.8771 26.1425C35.8771 26.5757 35.8771 27.0089 35.8771 27.4421C35.8771 31.9472 35.9065 36.4812 35.8477 40.9864C35.8183 44.2786 33.644 47.1954 30.6175 48.2928C27.503 49.4479 23.9476 48.6105 21.7439 46.2424C19.3639 43.6721 18.8937 39.9178 20.5392 37.0299C22.4197 33.7666 25.74 32.236 29.4422 32.9291C29.7067 32.9869 29.9417 33.0735 30.4706 33.2179ZM30.3825 40.9286C30.4706 39.4558 29.3541 38.1851 27.8849 38.0985C26.4745 38.0118 25.0642 39.2536 25.0348 40.6109C24.976 42.0549 26.122 43.3256 27.5617 43.4411C29.0015 43.5566 30.2943 42.4014 30.3825 40.9286Z" fill="#5C5A6D"/>
</g>
<g clip-path="url(#clip1)">
<path d="M0.5 29.6398C0.5 13.4098 13.8986 0.298667 30.5 0.240909C46.8957 0.18315 60.5294 13.5831 60.5294 29.6976C60.5 45.9276 46.9545 59.1832 30.3825 59.212C13.9868 59.2698 0.5 45.8988 0.5 29.6398ZM30.5 5.61242C16.8957 5.61242 5.96523 16.3554 5.96523 29.6976C5.96523 43.0686 16.8957 53.8116 30.5 53.8116C43.9868 53.8116 54.976 43.0109 55.0054 29.7842C55.0054 16.4421 44.0455 5.6413 30.5 5.61242Z" fill="white"/>
<path d="M30.4706 30.2179C30.4706 29.3515 30.4706 28.7162 30.4706 28.052C30.4706 24.2977 30.4706 20.5434 30.4706 16.7891C30.4706 15.5184 30.7938 14.3921 32.1455 13.8723C33.4677 13.3814 34.4961 13.8146 35.4364 14.7387C37.9927 17.2512 40.5784 19.7637 43.1053 22.2761C44.0456 23.2003 44.3982 24.3554 43.7517 25.5684C43.1935 26.6369 42.1944 27.2433 40.9603 26.9546C40.2845 26.8102 39.6087 26.4059 39.1092 25.9438C38.1102 25.0485 37.1993 24.0089 35.8771 23.1425C35.8771 23.5757 35.8771 24.0089 35.8771 24.4421C35.8771 28.9472 35.9065 33.4812 35.8477 37.9864C35.8183 41.2786 33.644 44.1954 30.6175 45.2928C27.503 46.4479 23.9476 45.6105 21.7439 43.2424C19.3639 40.6721 18.8937 36.9178 20.5392 34.0299C22.4197 30.7666 25.74 29.236 29.4422 29.9291C29.7067 29.9869 29.9417 30.0735 30.4706 30.2179ZM30.3825 37.9286C30.4706 36.4558 29.3541 35.1851 27.8849 35.0985C26.4745 35.0118 25.0642 36.2536 25.0348 37.6109C24.976 39.0549 26.122 40.3256 27.5617 40.4411C29.0015 40.5566 30.2943 39.4014 30.3825 37.9286Z" fill="white"/>
</g>
<defs>
<clipPath id="clip0">
<rect width="60" height="59" fill="white" transform="translate(0.5 3.24146)"/>
</clipPath>
<clipPath id="clip1">
<rect width="60" height="59" fill="white" transform="translate(0.5 0.241455)"/>
</clipPath>
</defs>
</svg>
