<svg width="463" height="93" viewBox="0 0 463 93" fill="none" xmlns="http://www.w3.org/2000/svg">
<g clip-path="url(#clip0)">
<path fill-rule="evenodd" clip-rule="evenodd" d="M47.4331 41.7976L44.2709 61.6516H58.2373C55.8656 66.8763 49.5412 68.9662 44.5344 68.9662C34.5207 68.9662 30.0409 60.3454 31.3585 50.9409C32.9396 40.7527 40.3181 31.3482 51.3858 31.3482C56.3927 31.3482 60.3454 33.6993 62.19 37.8791L92.758 27.4297C88.2783 13.0617 69.0415 5.74707 54.2845 5.74707C27.6693 6.00831 4.74325 22.4662 0.526969 49.8959C-3.68931 77.0645 15.0204 92.7386 40.8451 92.7386C54.021 92.7386 68.778 87.5139 79.3187 77.8482C90.9134 67.1375 92.758 55.6431 95.1297 41.7976H47.4331Z" fill="white"/>
<path fill-rule="evenodd" clip-rule="evenodd" d="M91.7041 91.4326H120.691L129.651 32.132H100.664L91.7041 91.4326ZM120.164 0C110.941 0 103.299 5.22472 101.981 13.8455C100.4 23.5112 107.515 27.691 115.948 27.691C124.38 27.691 132.549 23.5112 134.13 13.8455C135.448 5.22472 129.387 0 120.164 0Z" fill="white"/>
<path fill-rule="evenodd" clip-rule="evenodd" d="M130.441 91.4326H159.691L173.394 0.783691H144.407L130.441 91.4326Z" fill="white"/>
<path fill-rule="evenodd" clip-rule="evenodd" d="M168.388 91.4326H197.375L211.341 0.783691H182.354L168.388 91.4326Z" fill="white"/>
<path fill-rule="evenodd" clip-rule="evenodd" d="M278.538 66.6153C283.281 44.4102 268.788 30.8259 247.443 30.8259C228.47 30.8259 211.077 43.104 208.179 62.6967C205.017 83.0731 220.828 92.7389 239.537 92.7389C253.24 92.7389 270.369 86.2079 276.43 71.84H247.97C246.916 74.7136 244.281 76.8035 241.382 76.8035C235.321 76.8035 235.321 71.3175 236.112 66.6153H278.538ZM237.956 54.3372C238.483 50.1574 241.382 46.5001 245.598 46.5001C249.815 46.5001 252.186 50.1574 251.396 54.3372H237.956Z" fill="white"/>
<path fill-rule="evenodd" clip-rule="evenodd" d="M324.653 13.0618H295.403L292.504 32.9157L285.389 32.3932L281.964 55.1208L289.079 54.5983L283.545 91.4326H312.795L318.329 54.5983L328.079 55.1208L331.505 32.3932L321.755 32.9157L324.653 13.0618Z" fill="white"/>
<path fill-rule="evenodd" clip-rule="evenodd" d="M373.668 13.0618H344.417L341.518 32.9157L334.404 32.3932L330.978 55.1208L338.093 54.5983L332.559 91.4326H361.809L367.343 54.5983L377.093 55.1208L380.519 32.3932L370.769 32.9157L373.668 13.0618Z" fill="white"/>
<path fill-rule="evenodd" clip-rule="evenodd" d="M447.189 66.6153C451.932 44.4102 437.439 30.8259 416.094 30.8259C397.121 30.8259 379.729 43.104 376.83 62.6967C373.668 83.0731 389.479 92.7389 408.188 92.7389C421.891 92.7389 439.02 86.2079 445.081 71.84H416.885C415.83 74.7136 413.195 76.8035 410.297 76.8035C404.236 76.8035 404.236 71.3175 405.026 66.6153H447.189ZM406.871 54.3372C407.398 50.1574 410.297 46.5001 414.513 46.5001C418.729 46.5001 421.101 50.1574 420.31 54.3372H406.871Z" fill="white"/>
<path fill-rule="evenodd" clip-rule="evenodd" d="M454.568 28.2135C459.311 28.2135 463 24.5562 463 19.8539C463 15.1517 459.311 11.4944 454.568 11.4944C449.824 11.4944 446.135 15.1517 446.135 19.8539C446.135 24.5562 449.824 28.2135 454.568 28.2135ZM454.568 26.3848C450.878 26.3848 447.98 23.7725 447.98 19.8539C447.98 15.9354 450.878 13.323 454.568 13.323C458.257 13.323 461.155 15.9354 461.155 19.8539C461.155 23.7725 458.257 26.3848 454.568 26.3848ZM456.676 20.3764C458.257 20.3764 459.047 19.5927 459.047 18.0253C459.047 15.6742 457.73 15.4129 455.622 15.4129H451.405V24.2949H453.25V20.3764H454.568L456.676 24.0337H458.784L456.676 20.3764ZM453.25 19.0702V16.9803H455.095C455.885 16.9803 457.203 16.9803 457.203 17.764C457.203 18.809 456.676 19.0702 455.622 19.0702H453.25Z" fill="white"/>
</g>
<defs>
<clipPath id="clip0">
<rect width="463" height="93" fill="white"/>
</clipPath>
</defs>
</svg>
