<svg width="456" height="175" viewBox="0 0 456 175" fill="none" xmlns="http://www.w3.org/2000/svg">
<g clip-path="url(#clip0)">
<path d="M3.6516 77.3378C3.6516 76.6653 4.09873 76.1422 4.76943 76.0675C10.9547 75.1708 13.9356 72.705 13.9356 64.7844V16.8873C13.9356 9.04144 10.9547 6.50088 4.84395 5.67893C4.17325 5.52949 3.6516 4.93171 3.6516 4.25921C3.6516 3.51198 4.32229 2.83948 5.06751 2.9142C12.4452 3.06365 16.3203 3.06365 22.0585 3.06365C26.6044 3.06365 39.1241 2.2417 43.5954 2.2417C59.245 2.2417 67.0698 9.34033 67.0698 21.2959C67.0698 28.9923 62.0768 35.269 52.1654 38.4074C65.0577 44.5346 67.2188 74.1994 78.6952 76.0675C79.3659 76.1422 79.8131 76.6653 79.8131 77.3378V77.4125C79.8131 78.1597 79.2169 78.6828 78.5462 78.6828H54.3265C45.3094 48.1213 37.3355 40.649 30.7031 40.649H30.6285V62.6922C30.6285 71.4347 33.3113 75.4697 40.689 76.1422C41.3597 76.2169 41.8814 76.74 41.8814 77.4125V77.4872C41.8814 78.2344 41.2852 78.8322 40.54 78.7575C32.268 78.6081 26.6789 78.608 22.0585 78.608C16.6929 78.608 11.4019 78.6081 4.99299 78.7575C4.24777 78.7575 3.6516 78.1597 3.6516 77.4872V77.3378V77.3378ZM35.9196 37.8096C45.9801 37.8096 50.0788 33.4757 50.0788 23.164C50.0788 10.6853 45.7565 5.45477 38.7514 5.45477C36.0687 5.45477 32.9387 5.67893 30.6285 6.12727V37.8096H35.9196Z" fill="#4D6E7F"/>
<path d="M85.8851 77.263C85.8851 76.6652 86.3323 76.1421 86.9284 75.9927C91.1762 75.096 94.008 72.5555 94.008 64.7843V21.8189C94.008 17.7092 91.7724 15.318 87.003 14.6455C86.3323 14.5708 85.8851 13.973 85.8851 13.3753V13.1511C85.8851 12.628 86.1832 12.105 86.7049 11.9555C93.4864 9.34024 100.268 5.45467 107.049 0.224102C107.496 -0.0747878 108.093 -0.14951 108.54 0.14938L109.136 0.522992C109.509 0.747159 109.732 1.19549 109.732 1.64383V32.28C115.47 26.0034 124.04 22.1925 131.269 22.1925C138.05 22.1925 146.993 25.4803 146.993 38.3326V62.6174C146.993 71.7335 149.452 74.9466 154.073 75.9927C154.669 76.1421 155.116 76.6652 155.116 77.263V77.4124C155.116 78.1596 154.52 78.7574 153.775 78.6827C143.342 78.3838 134.697 78.3838 125.158 78.6827C124.413 78.6827 123.817 78.0849 123.817 77.4124V77.1882C123.817 76.5905 124.189 76.0674 124.786 75.918C128.065 74.9466 130.896 72.406 130.896 64.7843V41.6203C130.896 33.2514 128.065 29.4406 123.221 29.4406C118.6 29.4406 113.682 31.6075 110.254 35.4184V62.6174C110.254 71.6588 112.639 74.9466 116.365 75.9927C116.961 76.1421 117.333 76.6652 117.333 77.263V77.4871C117.333 78.2344 116.737 78.8321 115.992 78.7574C106.453 78.4585 97.8832 78.4585 87.3756 78.7574C86.6304 78.7574 86.0342 78.1596 86.0342 77.4871L85.8851 77.263Z" fill="#4D6E7F"/>
<path d="M156.871 92.9546C156.871 88.0976 159.926 85.1087 164.695 85.1087C170.881 85.1087 172.893 91.1612 175.948 91.1612C179.004 91.1612 181.016 89.7415 185.711 78.7573L167.453 40.6489C162.907 31.3085 161.044 28.1702 156.647 27.1988C156.2 27.1241 155.902 26.6758 155.902 26.2274V25.4055C155.902 24.8824 156.349 24.4341 156.871 24.4341C167.676 24.733 176.768 24.733 187.574 24.4341C188.095 24.4341 188.542 24.8824 188.542 25.4055V26.2274C188.542 26.6758 188.244 27.1241 187.797 27.1988C182.432 28.3196 180.792 31.0844 183.922 38.4819L193.461 60.8239L202.106 40.6489C205.459 32.8777 203.894 28.5438 198.379 27.2735C197.932 27.1988 197.634 26.7505 197.634 26.3021V25.4802C197.634 24.9571 198.081 24.5088 198.677 24.5088C207.769 24.8077 206.353 24.8077 216.488 24.5088C217.01 24.5088 217.457 24.9571 217.457 25.4802V26.2274C217.457 26.6758 217.084 27.1241 216.637 27.1988C211.57 28.1702 209.036 30.7108 205.683 38.4819L188.17 78.7573C180.494 96.4665 173.34 101.473 165.962 101.473C160.746 101.473 156.871 97.8862 156.871 92.9546Z" fill="#4D6E7F"/>
<path d="M234.557 61.4967V27.4233H224.795C224.273 27.4233 223.826 26.9749 223.826 26.4519C223.826 26.0783 224.05 25.7046 224.422 25.5552C235.601 20.9224 242.233 15.6918 248.567 9.48987L250.654 10.6854V24.5838H262.13C262.652 24.5838 263.099 25.0321 263.099 25.5552V26.4519C263.099 26.9749 262.652 27.4233 262.13 27.4233H250.654V59.3297C250.654 67.4745 255.274 71.8831 260.193 71.8831C261.534 71.8831 262.801 71.5095 263.77 70.837C264.217 70.5381 264.888 70.6128 265.26 70.9864C265.707 71.4348 265.707 72.1073 265.335 72.6303C261.683 77.3379 256.467 79.8784 250.952 79.8784C241.711 79.8784 234.557 73.3028 234.557 61.4967Z" fill="#4D6E7F"/>
<path d="M270.967 77.3377C270.967 76.6652 271.415 76.1422 272.085 75.9927C276.259 75.0213 279.09 72.4808 279.09 64.7844V21.819C279.09 17.7092 276.855 15.3928 272.16 14.6456C271.489 14.5709 270.967 13.9731 270.967 13.2259V13.1512C270.967 12.5534 271.34 12.0303 271.862 11.8809C278.569 9.26558 285.35 5.45474 292.057 0.224167C292.504 -0.149445 293.175 -0.149445 293.622 0.149445L294.069 0.448335C294.516 0.672502 294.74 1.12084 294.74 1.64389V32.2054C300.478 25.9287 309.048 22.1178 316.277 22.1178C323.058 22.1178 332.001 25.4056 332.001 38.2579V62.5427C332.001 71.5841 334.386 74.8719 339.006 75.918C339.677 76.0675 340.124 76.5905 340.124 77.263C340.124 78.085 339.453 78.6827 338.708 78.6827C328.349 78.3839 319.779 78.3839 310.315 78.6827C309.495 78.6827 308.899 78.085 308.899 77.263V77.1883C308.899 76.5905 309.346 75.9927 309.942 75.8433C313.221 74.8719 315.979 72.2566 315.979 64.7096V41.6204C315.979 33.2515 313.147 29.4406 308.303 29.4406C303.683 29.4406 298.764 31.6076 295.336 35.4184V62.6174C295.336 71.5841 297.721 74.8719 301.372 75.918C301.969 76.0675 302.416 76.6652 302.416 77.263V77.3377C302.416 78.1597 301.745 78.7575 301 78.7575C291.536 78.4586 282.965 78.4586 272.607 78.7575C271.638 78.8322 270.967 78.1597 270.967 77.3377Z" fill="#4D6E7F"/>
<path d="M345.12 77.3379C345.12 76.6654 345.567 76.1423 346.164 75.9929C350.337 75.0215 353.243 72.5557 353.243 64.7845V43.5633C353.243 39.4536 351.008 37.0625 346.313 36.39C345.642 36.3153 345.12 35.7175 345.12 35.045V34.8955C345.12 34.2978 345.493 33.8494 346.015 33.6253C352.722 31.01 359.578 27.1991 366.285 21.9686C366.732 21.5949 367.328 21.5949 367.85 21.8938L368.371 22.1927C368.744 22.4169 369.042 22.8652 369.042 23.3883V32.0561C374.258 26.0036 381.264 22.1927 388.418 22.1927C394.081 22.1927 400.937 24.4344 403.173 32.7286C408.464 26.2277 415.693 22.1927 423.07 22.1927C429.852 22.1927 438.795 25.4805 438.795 38.3328V62.6176C438.795 71.7337 441.254 74.9468 445.8 75.9929C446.396 76.1423 446.917 76.6654 446.917 77.3379V77.4126C446.917 78.1598 446.247 78.8323 445.501 78.7576C435.143 78.4587 426.573 78.4587 417.556 78.7576C416.811 78.7576 416.14 78.1598 416.14 77.4126V77.2632C416.14 76.6654 416.512 76.1423 417.109 75.9929C419.94 75.0215 422.623 72.4062 422.623 64.8593V41.6206C422.623 33.2516 419.791 29.4408 414.947 29.4408C410.327 29.4408 406.974 31.6078 403.993 35.4186C404.067 36.39 404.067 37.3614 404.067 38.3328V62.6176C404.067 71.659 406.452 74.9468 410.625 75.9929C411.221 76.1423 411.669 76.6654 411.669 77.3379V77.4126C411.669 78.1598 410.998 78.8323 410.253 78.7576C400.341 78.4587 391.846 78.4587 382.903 78.7576C382.158 78.7576 381.487 78.1598 381.487 77.4126V77.2632C381.487 76.6654 381.86 76.1423 382.456 75.9929C385.288 75.0215 387.97 72.4062 387.97 64.8593V41.6206C387.97 33.2516 385.139 29.4408 380.295 29.4408C375.674 29.4408 372.395 31.6077 369.489 35.1944V62.6176C369.489 71.5096 371.799 74.8721 375.004 75.9182C375.6 76.1423 375.972 76.5907 375.972 77.1885V77.3379C375.972 78.0851 375.302 78.7576 374.557 78.6829C365.539 78.384 357.044 78.384 346.611 78.6829C345.866 78.6829 345.195 78.0851 345.195 77.3379V77.3379H345.12Z" fill="#4D6E7F"/>
<path d="M0 154.227C0 144.364 5.51463 137.489 17.8853 132.857C13.3394 125.459 11.1038 119.257 11.1038 115.073C11.1038 103.864 19.7483 95.8689 34.1311 95.8689C48.0667 95.8689 54.9227 101.921 54.9227 110.216C54.9227 119.033 50.3023 124.562 36.2922 129.195C42.1049 137.19 49.9297 145.933 57.3819 153.256C58.6488 150.64 59.5431 148.025 59.8412 145.634C60.6609 140.478 57.68 136.07 51.7928 134.949C51.1966 134.799 50.7495 134.276 50.7495 133.678V133.529C50.7495 132.782 51.3456 132.184 52.0909 132.184C63.9399 132.483 63.7908 132.483 74.522 132.184C75.2672 132.184 75.8634 132.782 75.8634 133.529V133.678C75.8634 134.276 75.4162 134.799 74.8201 134.949C69.8271 135.995 66.3246 139.731 62.9711 147.876C61.8532 150.491 60.5864 152.957 59.394 155.273C66.9953 162.596 74.2239 168.424 78.2481 170.442C78.6952 170.666 78.9933 171.114 78.9933 171.637V172.086C78.9933 172.833 78.3971 173.356 77.7264 173.356H60.4373C58.0526 173.356 55.7424 172.534 53.8794 171.114C52.4635 169.994 51.0476 168.873 49.7062 167.752C43.2227 172.609 35.9941 175 27.4241 175C10.7312 175 0 165.884 0 154.227ZM47.0979 165.51C34.7272 154.974 25.561 144.438 19.5248 135.472C16.6929 138.386 15.2025 143.168 15.2025 149.594C15.2025 161.55 23.3254 169.321 34.5782 169.321C38.826 169.321 43.1482 167.901 47.0979 165.51ZM42.8501 111.038C42.8501 104.238 38.3788 98.6336 33.6839 98.6336C29.1381 98.6336 26.5298 102.22 26.5298 108.721C26.5298 113.205 29.6597 119.556 34.4292 126.505C38.826 124.338 42.8501 117.688 42.8501 111.038Z" fill="#91A6B2"/>
<path d="M90.7678 171.936C90.7678 171.264 91.2149 170.741 91.8856 170.666C98.0709 169.769 101.052 167.304 101.052 159.383V111.411C101.052 103.491 98.0709 101.025 91.8856 100.128C91.2149 100.053 90.7678 99.4555 90.7678 98.8578V98.7083C90.7678 97.9611 91.3639 97.3633 92.1092 97.438C99.5614 97.5875 103.437 97.5875 109.175 97.5875C113.721 97.5875 126.24 96.6908 130.712 96.6908C146.436 96.6908 154.186 103.864 154.186 115.82C154.186 123.516 149.193 129.793 139.282 132.931C152.174 139.058 154.335 168.723 165.811 170.591C166.482 170.666 166.929 171.189 166.929 171.862V171.936C166.929 172.684 166.333 173.207 165.662 173.207H141.443C132.426 142.496 124.452 135.023 117.819 135.023H117.745V157.067C117.745 165.809 120.428 169.844 127.805 170.517C128.476 170.591 128.998 171.114 128.998 171.787V171.862C128.998 172.609 128.401 173.207 127.656 173.132C119.384 172.982 113.795 172.982 109.175 172.982C103.809 172.982 98.5181 172.982 92.1092 173.132C91.3639 173.132 90.7678 172.534 90.7678 171.862V171.936ZM122.961 132.333C133.022 132.333 137.12 128 137.12 117.688C137.12 105.209 132.798 99.9786 125.793 99.9786C123.11 99.9786 119.98 100.203 117.67 100.651V132.333H122.961V132.333Z" fill="#4D6E7F"/>
<path d="M169.612 145.709C169.537 127.925 180.343 116.716 197.632 116.716C213.878 117.015 224.684 128.523 224.684 145.933C224.684 163.642 213.953 174.477 196.663 174.477C180.79 174.477 169.761 162.82 169.612 145.709ZM207.842 149.295C207.916 128 204.563 119.481 196.365 119.481C189.435 119.481 186.528 125.982 186.528 142.047C186.528 163.194 189.807 171.787 198.005 171.787C204.935 171.712 207.693 165.211 207.842 149.295Z" fill="#4D6E7F"/>
<path d="M232.285 160.878C232.285 150.79 237.502 145.111 265.596 136.144C265.149 122.769 261.796 119.556 256.43 119.556C251.363 119.556 248.456 122.022 248.456 125.534C248.456 128.149 250.17 129.419 250.17 133.155C250.17 137.19 247.04 140.777 242.271 140.777C238.396 140.777 235.042 137.639 235.042 132.857C235.042 124.264 246.519 116.791 260.231 116.791C274.092 116.791 281.693 122.246 281.693 134.949V158.412C281.693 164.091 284.152 167.005 286.761 167.005C287.506 167.005 288.102 166.855 288.773 166.407C289.294 166.108 289.891 166.258 290.338 166.631L290.412 166.706C290.859 167.154 290.934 167.827 290.561 168.35C288.102 171.712 283.333 174.029 278.414 174.029C273.57 174.029 268.801 170.741 266.714 165.66C260.976 171.862 254.94 174.552 247.488 174.552C238.47 174.477 232.285 167.752 232.285 160.878ZM265.82 162.97C265.596 161.998 265.522 161.027 265.522 159.906L265.596 139.283V138.76C252.033 143.094 248.382 149.146 248.382 156.021C248.382 161.998 251.288 166.108 257.026 166.108C259.784 166.108 262.839 165.436 265.82 162.97Z" fill="#4D6E7F"/>
<path d="M295.927 147.203C295.927 127.701 305.987 116.567 321.935 116.567C326.555 116.567 330.803 117.987 334.455 120.901V116.343C334.455 112.233 332.219 109.842 327.45 109.169C326.779 109.095 326.332 108.497 326.332 107.899V107.675C326.332 107.152 326.63 106.629 327.151 106.479C333.933 103.864 340.863 99.9786 347.57 94.748C348.018 94.4491 348.614 94.3744 349.061 94.6733L349.657 95.0469C350.03 95.2711 350.253 95.7194 350.253 96.1678V157.216C350.253 166.332 352.712 169.545 357.333 170.591C357.929 170.741 358.376 171.264 358.376 171.862V172.011C358.376 172.758 357.78 173.356 357.035 173.281C346.676 172.982 345.484 172.982 334.38 173.356V166.332C330.058 171.339 324.394 174.327 318.507 174.327C306.658 174.327 295.927 164.539 295.927 147.203ZM334.157 163.493V124.338C331.474 121.872 327.971 120.228 324.841 120.228C317.687 120.228 312.843 126.655 312.843 143.99C312.843 161.251 318.805 167.079 326.034 167.079C328.94 167.079 331.772 165.884 334.157 163.493Z" fill="#4D6E7F"/>
<path d="M365.828 169.769C365.828 164.016 365.605 158.113 365.456 152.359C365.456 151.687 365.977 151.089 366.648 151.014H366.797C367.319 150.939 367.915 151.313 368.139 151.761C373.951 164.987 382.447 171.862 389.75 171.862C394.519 171.862 397.649 168.723 397.649 164.464C397.649 152.658 365.53 152.733 365.53 133.305C365.53 122.694 373.951 116.716 387.067 116.716C393.103 116.716 401.599 118.211 405.251 120.154C405.176 124.861 405.027 129.643 405.101 134.351C405.101 135.023 404.58 135.621 403.909 135.696H403.686C403.164 135.771 402.642 135.472 402.419 135.023C396.531 123.74 391.762 119.332 385.279 119.332C380.807 119.332 378.125 122.171 378.125 126.356C378.125 137.863 410.169 139.058 410.169 156.768C410.169 167.602 402.791 174.477 386.769 174.477C379.988 174.477 369.405 172.385 365.828 169.769Z" fill="#4D6E7F"/>
</g>
<defs>
<clipPath id="clip0">
<rect width="456" height="175" fill="white"/>
</clipPath>
</defs>
</svg>
