<svg width="150" height="144" viewBox="0 0 150 144" fill="none" xmlns="http://www.w3.org/2000/svg">
<circle cx="5.38268" cy="5.94835" r="5.07873" fill="#2E5063" fill-opacity="0.2"/>
<circle cx="28.5885" cy="5.94835" r="5.07873" fill="#2E5063" fill-opacity="0.2"/>
<circle cx="51.7942" cy="5.94835" r="5.07873" fill="#2E5063" fill-opacity="0.2"/>
<circle cx="75" cy="5.94835" r="5.07873" fill="#2E5063" fill-opacity="0.2"/>
<circle cx="98.2058" cy="5.94835" r="5.07873" fill="#2E5063" fill-opacity="0.2"/>
<circle cx="121.411" cy="5.94835" r="5.07873" fill="#2E5063" fill-opacity="0.2"/>
<circle cx="144.617" cy="5.94835" r="5.07873" fill="#2E5063" fill-opacity="0.2"/>
<circle cx="5.38268" cy="24.8202" r="5.07873" fill="#2E5063" fill-opacity="0.2"/>
<circle cx="28.5885" cy="24.8202" r="5.07873" fill="#2E5063" fill-opacity="0.2"/>
<circle cx="51.7942" cy="24.8202" r="5.07873" fill="#2E5063" fill-opacity="0.2"/>
<circle cx="75" cy="24.8202" r="5.07873" fill="#2E5063" fill-opacity="0.2"/>
<circle cx="98.2058" cy="24.8202" r="5.07873" fill="#2E5063" fill-opacity="0.2"/>
<circle cx="121.411" cy="24.8202" r="5.07873" fill="#2E5063" fill-opacity="0.2"/>
<circle cx="144.617" cy="24.8202" r="5.07873" fill="#2E5063" fill-opacity="0.2"/>
<circle cx="5.38268" cy="43.6925" r="5.07873" fill="#2E5063" fill-opacity="0.2"/>
<circle cx="28.5885" cy="43.6923" r="5.07873" fill="#2E5063" fill-opacity="0.2"/>
<circle cx="51.7942" cy="43.6923" r="5.07873" fill="#2E5063" fill-opacity="0.2"/>
<circle cx="75" cy="43.6923" r="5.07873" fill="#2E5063" fill-opacity="0.2"/>
<circle cx="98.2058" cy="43.6923" r="5.07873" fill="#2E5063" fill-opacity="0.2"/>
<circle cx="121.411" cy="43.6923" r="5.07873" fill="#2E5063" fill-opacity="0.2"/>
<circle cx="144.617" cy="43.6923" r="5.07873" fill="#2E5063" fill-opacity="0.2"/>
<circle cx="5.38268" cy="62.5641" r="5.07873" fill="#2E5063" fill-opacity="0.2"/>
<circle cx="28.5885" cy="62.5638" r="5.07873" fill="#2E5063" fill-opacity="0.2"/>
<circle cx="51.7942" cy="62.5638" r="5.07873" fill="#2E5063" fill-opacity="0.2"/>
<circle cx="75" cy="62.5638" r="5.07873" fill="#2E5063" fill-opacity="0.2"/>
<circle cx="98.2058" cy="62.5638" r="5.07873" fill="#2E5063" fill-opacity="0.2"/>
<circle cx="121.411" cy="62.5638" r="5.07873" fill="#2E5063" fill-opacity="0.2"/>
<circle cx="144.617" cy="62.5638" r="5.07873" fill="#2E5063" fill-opacity="0.2"/>
<circle cx="5.38268" cy="81.4361" r="5.07873" fill="#2E5063" fill-opacity="0.2"/>
<circle cx="28.5885" cy="81.4359" r="5.07873" fill="#2E5063" fill-opacity="0.2"/>
<circle cx="51.7942" cy="81.4359" r="5.07873" fill="#2E5063" fill-opacity="0.2"/>
<circle cx="75" cy="81.4359" r="5.07873" fill="#2E5063" fill-opacity="0.2"/>
<circle cx="98.2058" cy="81.4359" r="5.07873" fill="#2E5063" fill-opacity="0.2"/>
<circle cx="121.411" cy="81.4359" r="5.07873" fill="#2E5063" fill-opacity="0.2"/>
<circle cx="144.617" cy="81.4359" r="5.07873" fill="#2E5063" fill-opacity="0.2"/>
<circle cx="5.38268" cy="100.307" r="5.07873" fill="#2E5063" fill-opacity="0.2"/>
<circle cx="28.5885" cy="100.307" r="5.07873" fill="#2E5063" fill-opacity="0.2"/>
<circle cx="51.7942" cy="100.307" r="5.07873" fill="#2E5063" fill-opacity="0.2"/>
<circle cx="75" cy="100.307" r="5.07873" fill="#2E5063" fill-opacity="0.2"/>
<circle cx="98.2058" cy="100.307" r="5.07873" fill="#2E5063" fill-opacity="0.2"/>
<circle cx="121.411" cy="100.307" r="5.07873" fill="#2E5063" fill-opacity="0.2"/>
<circle cx="144.617" cy="100.307" r="5.07873" fill="#2E5063" fill-opacity="0.2"/>
<circle cx="5.38268" cy="119.179" r="5.07873" fill="#2E5063" fill-opacity="0.2"/>
<circle cx="28.5885" cy="119.179" r="5.07873" fill="#2E5063" fill-opacity="0.2"/>
<circle cx="51.7942" cy="119.179" r="5.07873" fill="#2E5063" fill-opacity="0.2"/>
<circle cx="75" cy="119.179" r="5.07873" fill="#2E5063" fill-opacity="0.2"/>
<circle cx="98.2058" cy="119.179" r="5.07873" fill="#2E5063" fill-opacity="0.2"/>
<circle cx="121.411" cy="119.179" r="5.07873" fill="#2E5063" fill-opacity="0.2"/>
<circle cx="144.617" cy="119.179" r="5.07873" fill="#2E5063" fill-opacity="0.2"/>
<circle cx="5.38268" cy="138.051" r="5.07873" fill="#2E5063" fill-opacity="0.2"/>
<circle cx="28.5885" cy="138.051" r="5.07873" fill="#2E5063" fill-opacity="0.2"/>
<circle cx="51.7942" cy="138.051" r="5.07873" fill="#2E5063" fill-opacity="0.2"/>
<circle cx="75" cy="138.051" r="5.07873" fill="#2E5063" fill-opacity="0.2"/>
<circle cx="98.2058" cy="138.051" r="5.07873" fill="#2E5063" fill-opacity="0.2"/>
<circle cx="121.411" cy="138.051" r="5.07873" fill="#2E5063" fill-opacity="0.2"/>
<circle cx="144.617" cy="138.051" r="5.07873" fill="#2E5063" fill-opacity="0.2"/>
</svg>
