<svg width="21" height="40" viewBox="0 0 21 40" fill="none" xmlns="http://www.w3.org/2000/svg">
<g clip-path="url(#clip0)" filter="url(#filter0_d)">
<path d="M9.99617 34.5543C10.7345 33.6683 11.4728 33.0776 12.2112 32.3393C12.9495 31.6009 13.8355 31.4532 14.4262 32.0439C15.0169 32.6346 15.0169 33.5206 14.2785 34.2589C13.2449 35.2926 12.3589 36.1786 11.3252 37.2123C10.5868 37.9506 9.8485 37.9506 8.96249 37.2123C7.92881 36.1786 6.89513 35.145 6.00912 34.2589C5.27078 33.5206 5.27078 32.7823 5.86145 32.1916C6.45212 31.6009 7.19047 31.7486 7.92881 32.3393C8.51948 32.9299 9.25782 33.6683 9.99617 34.5543Z" fill="#CBC1B9"/>
<path d="M11.4728 9.30315C11.4728 9.89382 11.4728 10.4845 11.4728 11.0752C11.4728 11.9612 10.8821 12.5519 9.99613 12.5519C9.25779 12.5519 8.66711 11.9612 8.66711 11.0752C8.66711 9.89382 8.66711 8.71247 8.66711 7.53113C8.66711 6.64512 9.25779 6.05444 9.99613 6.05444C10.7345 6.05444 11.3251 6.64512 11.3251 7.53113C11.4728 7.97413 11.4728 8.71247 11.4728 9.30315Z" fill="#CBC1B9"/>
<path d="M10.1438 2.95337C13.9832 2.95337 17.0842 6.0544 17.0842 9.89378V19.0492C17.0842 22.8886 13.9832 25.9896 10.1438 25.9896C6.3044 25.9896 3.20337 22.8886 3.20337 19.0492V9.89378C3.20337 6.0544 6.3044 2.95337 10.1438 2.95337ZM10.1438 0C4.68005 0 0.25 4.43005 0.25 9.89378V19.0492C0.25 24.5129 4.68005 28.943 10.1438 28.943C15.6075 28.943 20.0376 24.5129 20.0376 19.0492V9.89378C20.1852 4.43005 15.6075 0 10.1438 0Z" fill="#CBC1B9"/>
</g>
<defs>
<filter id="filter0_d" x="0.25" y="0" width="19.9352" height="39.8031" filterUnits="userSpaceOnUse" color-interpolation-filters="sRGB">
<feFlood flood-opacity="0" result="BackgroundImageFix"/>
<feColorMatrix in="SourceAlpha" type="matrix" values="0 0 0 0 0 0 0 0 0 0 0 0 0 0 0 0 0 0 127 0"/>
<feOffset dy="2"/>
<feColorMatrix type="matrix" values="0 0 0 0 0 0 0 0 0 0 0 0 0 0 0 0 0 0 0.06 0"/>
<feBlend mode="normal" in2="BackgroundImageFix" result="effect1_dropShadow"/>
<feBlend mode="normal" in="SourceGraphic" in2="effect1_dropShadow" result="shape"/>
</filter>
<clipPath id="clip0">
<rect width="19.9352" height="37.8031" fill="white" transform="translate(0.25)"/>
</clipPath>
</defs>
</svg>
