<svg width="284" height="527" viewBox="0 0 284 527" fill="none" xmlns="http://www.w3.org/2000/svg">
<path d="M20.9567 216.691C-5.53034 216.463 -26.3089 237.241 -26.5373 263.272C-26.5373 289.302 -5.98701 310.309 19.815 310.309C46.302 310.537 67.0806 289.759 67.3089 263.728C67.5372 237.698 46.987 216.691 20.9567 216.691ZM20.2717 270.807C16.6183 270.578 12.9649 266.697 13.4216 263.272C13.6499 259.618 17.5316 255.965 21.185 256.65C25.2951 257.335 27.5784 259.847 27.8068 263.957C27.8068 267.153 23.925 270.807 20.2717 270.807Z" fill="#2E5063" fill-opacity="0.05"/>
<path d="M20.5 0C-124.95 0 -243 118.05 -243 263.5C-243 408.95 -124.95 527 20.5 527C165.95 527 284 408.95 284 263.5C284 118.05 166.178 0 20.5 0ZM118.913 380.18C56.8055 432.697 -29.9623 424.477 -81.1096 377.211C-61.701 355.291 -42.2925 333.371 -22.4272 311.222C-24.7106 308.939 -26.7656 306.427 -29.2773 303.687C-52.3393 322.182 -75.1729 340.678 -98.4632 359.63C-101.432 355.52 -104.4 351.866 -107.597 347.528C-98.0065 341.363 -88.8731 335.198 -79.7396 329.261C-65.3544 319.899 -51.1976 310.537 -36.8124 300.947C-35.4424 300.034 -34.9857 298.207 -34.0724 296.837C-35.6707 297.065 -37.7257 296.609 -38.8674 297.294C-61.2444 309.852 -83.6213 322.639 -105.77 335.426C-107.825 336.568 -109.652 337.709 -111.707 338.623C-141.39 293.412 -144.815 208.243 -82.9363 151.159C-23.5689 96.3579 66.1672 98.8696 122.11 149.56C102.473 171.48 83.0641 193.401 63.1989 215.778C65.4822 218.289 67.7656 220.573 70.2773 223.313C93.1109 204.818 115.945 186.322 139.463 167.37C142.432 171.48 145.172 175.134 148.368 179.244C145.4 181.299 142.66 183.126 139.92 184.952C119.826 198.196 99.5043 211.439 79.4107 224.683C78.7257 225.14 77.584 225.596 77.1274 226.281C76.214 227.423 75.7574 229.021 75.3007 230.163C76.6707 230.163 78.2691 230.391 79.1824 229.935C86.9458 225.825 94.4809 221.258 102.016 216.919C117.543 208.014 133.07 199.338 148.597 190.432C149.967 189.519 151.565 188.834 152.935 188.149C185.13 240.21 183.304 325.836 118.913 380.18Z" fill="#2E5063" fill-opacity="0.05"/>
</svg>
