<svg width="776" height="92" viewBox="0 0 776 92" fill="none" xmlns="http://www.w3.org/2000/svg">
<path d="M0.197754 69.8353C0.197754 69.2307 0.59983 68.7605 1.20294 68.6933C6.76499 67.8872 9.4455 65.6704 9.4455 58.5498V15.4902C9.4455 8.43672 6.76499 6.15274 1.26996 5.41381C0.666842 5.27946 0.197754 4.74206 0.197754 4.13747C0.197754 3.46572 0.800868 2.86114 1.47099 2.92831C8.10525 3.06266 11.5899 3.06266 16.7499 3.06266C20.8377 3.06266 32.0958 2.32373 36.1165 2.32373C50.1892 2.32373 57.2255 8.70542 57.2255 19.4535C57.2255 26.3726 52.7357 32.0154 43.823 34.8368C55.4162 40.3452 57.3595 67.0139 67.6795 68.6933C68.2826 68.7605 68.6847 69.2307 68.6847 69.8353V69.9025C68.6847 70.5742 68.1486 71.0445 67.5455 71.0445H45.7664C37.6578 43.5696 30.4875 36.852 24.5233 36.852H24.4563V56.6689C24.4563 64.5284 26.8688 68.1559 33.503 68.7605C34.1062 68.8277 34.5752 69.2979 34.5752 69.9025V69.9697C34.5752 70.6414 34.0391 71.1788 33.369 71.1116C25.9306 70.9773 20.9047 70.9773 16.7499 70.9773C11.925 70.9773 7.16707 70.9773 1.40398 71.1116C0.733855 71.1116 0.197754 70.5742 0.197754 69.9697V69.8353ZM29.2142 34.2994C38.2609 34.2994 41.9466 30.4032 41.9466 21.1329C41.9466 9.91458 38.0599 5.21229 31.7607 5.21229C29.3483 5.21229 26.5337 5.41381 24.4563 5.81687V34.2994H29.2142Z" fill="#4D6E7F"/>
<path d="M74.145 69.7681C74.145 69.2307 74.5471 68.7605 75.0832 68.6261C78.9029 67.82 81.4494 65.536 81.4494 58.5498V19.9237C81.4494 16.2291 79.439 14.0794 75.1502 13.4749C74.5471 13.4077 74.145 12.8703 74.145 12.3329V12.1314C74.145 11.6611 74.4131 11.1909 74.8822 11.0565C80.9803 8.70539 87.0784 5.21226 93.1766 0.50996C93.5787 0.241257 94.1148 0.174082 94.5168 0.442785L95.053 0.778663C95.388 0.98019 95.5891 1.38324 95.5891 1.7863V29.3283C100.749 23.6856 108.455 20.2596 114.956 20.2596C121.054 20.2596 129.095 23.2153 129.095 34.7696V56.6017C129.095 64.7971 131.307 67.6856 135.462 68.6261C135.998 68.7605 136.4 69.2307 136.4 69.7681V69.9024C136.4 70.5742 135.864 71.1116 135.194 71.0444C125.812 70.7757 118.038 70.7757 109.461 71.0444C108.791 71.0444 108.254 70.507 108.254 69.9024V69.7009C108.254 69.1635 108.589 68.6933 109.126 68.5589C112.074 67.6856 114.621 65.4017 114.621 58.5498V37.7253C114.621 30.2016 112.074 26.7757 107.718 26.7757C103.564 26.7757 99.1407 28.7237 96.0581 32.1497V56.6017C96.0581 64.7299 98.2025 67.6856 101.553 68.6261C102.089 68.7605 102.424 69.2307 102.424 69.7681V69.9696C102.424 70.6414 101.888 71.1788 101.218 71.1116C92.6405 70.8429 84.934 70.8429 75.4853 71.1116C74.8151 71.1116 74.279 70.5742 74.279 69.9696L74.145 69.7681Z" fill="#4D6E7F"/>
<path d="M137.978 83.8747C137.978 79.5083 140.725 76.8213 145.014 76.8213C150.576 76.8213 152.385 82.2625 155.133 82.2625C157.88 82.2625 159.69 80.9862 163.912 71.1114L147.493 36.8518C143.406 28.4548 141.73 25.6334 137.777 24.7602C137.374 24.693 137.106 24.2899 137.106 23.8869V23.1479C137.106 22.6777 137.509 22.2747 137.978 22.2747C147.694 22.5434 155.87 22.5434 165.587 22.2747C166.056 22.2747 166.458 22.6777 166.458 23.1479V23.8869C166.458 24.2899 166.19 24.693 165.788 24.7602C160.963 25.7678 159.489 28.2533 162.303 34.9037L170.881 54.9892L178.654 36.8518C181.67 29.8655 180.263 25.9693 175.304 24.8273C174.902 24.7602 174.634 24.3571 174.634 23.9541V23.2151C174.634 22.7449 175.036 22.3418 175.572 22.3418C183.747 22.6105 182.474 22.6105 191.588 22.3418C192.057 22.3418 192.459 22.7449 192.459 23.2151V23.8869C192.459 24.2899 192.124 24.693 191.722 24.7602C187.165 25.6334 184.886 27.9174 181.871 34.9037L166.123 71.1114C159.221 87.032 152.787 91.5328 146.153 91.5328C141.462 91.5328 137.978 88.3083 137.978 83.8747Z" fill="#4D6E7F"/>
<path d="M207.836 55.5939V24.9618H199.057C198.588 24.9618 198.186 24.5587 198.186 24.0885C198.186 23.7526 198.387 23.4167 198.722 23.2824C208.774 19.1175 214.738 14.4152 220.434 8.8396L222.31 9.91441V22.4091H232.63C233.099 22.4091 233.501 22.8121 233.501 23.2824V24.0885C233.501 24.5587 233.099 24.9618 232.63 24.9618H222.31V53.6458C222.31 60.9679 226.465 64.9313 230.888 64.9313C232.094 64.9313 233.233 64.5954 234.105 63.9908C234.507 63.7221 235.11 63.7893 235.445 64.1252C235.847 64.5282 235.847 65.1328 235.512 65.6031C232.228 69.8351 227.537 72.1191 222.578 72.1191C214.269 72.1191 207.836 66.2076 207.836 55.5939Z" fill="#4D6E7F"/>
<path d="M240.577 69.8351C240.577 69.2305 240.979 68.7603 241.582 68.6259C245.335 67.7526 247.881 65.4687 247.881 58.5496V19.9236C247.881 16.2289 245.871 14.1465 241.649 13.4747C241.046 13.4075 240.577 12.8701 240.577 12.1984V12.1312C240.577 11.5938 240.912 11.1235 241.381 10.9892C247.412 8.63804 253.51 5.21208 259.541 0.509786C259.944 0.173908 260.547 0.173908 260.949 0.442611L261.351 0.711313C261.753 0.91284 261.954 1.31589 261.954 1.78612V29.261C267.114 23.6182 274.82 20.1923 281.321 20.1923C287.419 20.1923 295.46 23.148 295.46 34.7022V56.5343C295.46 64.6626 297.605 67.6183 301.759 68.5588C302.363 68.6931 302.765 69.1633 302.765 69.7679C302.765 70.5069 302.162 71.0443 301.491 71.0443C292.177 70.7756 284.47 70.7756 275.96 71.0443C275.222 71.0443 274.686 70.5069 274.686 69.7679V69.7007C274.686 69.1633 275.088 68.6259 275.625 68.4916C278.573 67.6183 281.053 65.2672 281.053 58.4824V37.7251C281.053 30.2014 278.506 26.7755 274.15 26.7755C269.995 26.7755 265.573 28.7236 262.49 32.1495V56.6015C262.49 64.6626 264.634 67.6183 267.918 68.5588C268.454 68.6931 268.856 69.2305 268.856 69.7679V69.8351C268.856 70.574 268.253 71.1114 267.583 71.1114C259.072 70.8427 251.366 70.8427 242.051 71.1114C241.18 71.1786 240.577 70.574 240.577 69.8351Z" fill="#4D6E7F"/>
<path d="M307.258 69.8351C307.258 69.2305 307.66 68.7603 308.196 68.6259C311.949 67.7526 314.562 65.5358 314.562 58.5495V39.4717C314.562 35.777 312.552 33.6274 308.33 33.0228C307.727 32.9556 307.258 32.4182 307.258 31.8136V31.6793C307.258 31.1419 307.593 30.7388 308.062 30.5373C314.093 28.1861 320.258 24.7602 326.289 20.0579C326.691 19.722 327.228 19.722 327.697 19.9907L328.166 20.2594C328.501 20.4609 328.769 20.864 328.769 21.3342V29.1266C333.46 23.6854 339.759 20.2594 346.192 20.2594C351.285 20.2594 357.45 22.2747 359.461 29.7312C364.219 23.8869 370.719 20.2594 377.353 20.2594C383.451 20.2594 391.493 23.2151 391.493 34.7694V56.6015C391.493 64.7969 393.704 67.6854 397.792 68.6259C398.328 68.7603 398.797 69.2305 398.797 69.8351V69.9022C398.797 70.574 398.194 71.1786 397.524 71.1114C388.209 70.8427 380.503 70.8427 372.394 71.1114C371.724 71.1114 371.121 70.574 371.121 69.9022V69.7679C371.121 69.2305 371.456 68.7603 371.992 68.6259C374.539 67.7526 376.951 65.4015 376.951 58.6167V37.7251C376.951 30.2014 374.404 26.7755 370.049 26.7755C365.894 26.7755 362.878 28.7235 360.198 32.1495C360.265 33.0228 360.265 33.8961 360.265 34.7694V56.6015C360.265 64.7297 362.409 67.6854 366.162 68.6259C366.698 68.7603 367.1 69.2305 367.1 69.8351V69.9022C367.1 70.574 366.497 71.1786 365.827 71.1114C356.914 70.8427 349.275 70.8427 341.233 71.1114C340.563 71.1114 339.96 70.574 339.96 69.9022V69.7679C339.96 69.2305 340.295 68.7603 340.831 68.6259C343.378 67.7526 345.79 65.4015 345.79 58.6167V37.7251C345.79 30.2014 343.244 26.7755 338.888 26.7755C334.733 26.7755 331.784 28.7235 329.171 31.948V56.6015C329.171 64.5954 331.248 67.6183 334.13 68.5587C334.666 68.7603 335.001 69.1633 335.001 69.7007V69.8351C335.001 70.5068 334.398 71.1114 333.728 71.0442C325.619 70.7755 317.98 70.7755 308.598 71.0442C307.928 71.0442 307.325 70.5068 307.325 69.8351H307.258Z" fill="#4D6E7F"/>
<path d="M406.965 53.8648C406.965 44.9976 411.924 38.8175 423.048 34.6526C418.96 28.0022 416.949 22.4266 416.949 18.6648C416.949 8.58843 424.723 1.40063 437.656 1.40063C450.188 1.40063 456.353 6.84186 456.353 14.2984C456.353 22.2251 452.198 27.1961 439.6 31.361C444.827 38.5488 451.863 46.4083 458.564 52.9916C459.704 50.6404 460.508 48.2892 460.776 46.1396C461.513 41.5045 458.832 37.5411 453.538 36.5335C453.002 36.3992 452.6 35.9289 452.6 35.3915V35.2572C452.6 34.5854 453.136 34.048 453.806 34.048C464.461 34.3167 464.327 34.3167 473.977 34.048C474.647 34.048 475.183 34.5854 475.183 35.2572V35.3915C475.183 35.9289 474.781 36.3992 474.245 36.5335C469.755 37.474 466.606 40.8327 463.59 48.1549C462.585 50.506 461.446 52.7229 460.374 54.8053C467.209 61.3885 473.709 66.6282 477.328 68.442C477.73 68.6435 477.998 69.0465 477.998 69.5168V69.9198C477.998 70.5916 477.462 71.0618 476.859 71.0618H461.312C459.167 71.0618 457.09 70.3229 455.415 69.0465C454.142 68.0389 452.868 67.0313 451.662 66.0236C445.832 70.3901 439.332 72.5397 431.625 72.5397C416.614 72.5397 406.965 64.3442 406.965 53.8648ZM449.317 64.0084C438.192 54.5366 429.95 45.0648 424.522 37.0037C421.975 39.6236 420.635 43.9228 420.635 49.6999C420.635 60.448 427.94 67.4343 438.058 67.4343C441.878 67.4343 445.765 66.158 449.317 64.0084ZM445.497 15.0373C445.497 8.92431 441.476 3.88613 437.254 3.88613C433.167 3.88613 430.821 7.11057 430.821 12.9548C430.821 16.9854 433.636 22.6953 437.924 28.9427C441.878 26.9946 445.497 21.0159 445.497 15.0373Z" fill="#91A6B2"/>
<path d="M488.586 69.7853C488.586 69.1808 488.988 68.7105 489.591 68.6433C495.153 67.8372 497.834 65.6205 497.834 58.4998V15.373C497.834 8.2524 495.153 6.0356 489.591 5.22949C488.988 5.16232 488.586 4.62491 488.586 4.08751V3.95316C488.586 3.2814 489.122 2.74399 489.792 2.81116C496.493 2.94551 499.978 2.94552 505.138 2.94552C509.226 2.94552 520.484 2.1394 524.505 2.1394C538.644 2.1394 545.614 8.58828 545.614 19.3364C545.614 26.2555 541.124 31.8982 532.211 34.7196C543.804 40.228 545.748 66.8968 556.068 68.5762C556.671 68.6434 557.073 69.1136 557.073 69.7182V69.7853C557.073 70.4571 556.537 70.9273 555.934 70.9273H534.155C526.046 43.3181 518.876 36.6005 512.912 36.6005H512.845V56.4174C512.845 64.2769 515.257 67.9044 521.891 68.509C522.494 68.5762 522.963 69.0464 522.963 69.651V69.7182C522.963 70.3899 522.427 70.9273 521.757 70.8602C514.319 70.7258 509.293 70.7258 505.138 70.7258C500.313 70.7258 495.555 70.7258 489.792 70.8602C489.122 70.8602 488.586 70.3227 488.586 69.7182V69.7853ZM517.535 34.1822C526.582 34.1822 530.268 30.286 530.268 21.0158C530.268 9.79744 526.381 5.09514 520.082 5.09514C517.669 5.09514 514.855 5.29666 512.778 5.69972V34.1822H517.535Z" fill="#4D6E7F"/>
<path d="M559.485 46.2063C559.418 30.2184 569.135 20.1421 584.682 20.1421C599.291 20.4108 609.008 30.7559 609.008 46.4078C609.008 62.3284 599.358 72.0689 583.811 72.0689C569.537 72.0689 559.619 61.5895 559.485 46.2063ZM593.863 49.4307C593.93 30.2856 590.914 22.6276 583.543 22.6276C577.311 22.6276 574.697 28.4719 574.697 42.9147C574.697 61.9254 577.646 69.6506 585.017 69.6506C591.249 69.5834 593.729 63.7391 593.863 49.4307Z" fill="#4D6E7F"/>
<path d="M615.942 59.6417C615.942 50.573 620.633 45.4676 645.897 37.4066C645.494 25.3821 642.479 22.4936 637.654 22.4936C633.097 22.4936 630.484 24.7104 630.484 27.8676C630.484 30.2188 632.025 31.3607 632.025 34.7195C632.025 38.347 629.21 41.5714 624.922 41.5714C621.437 41.5714 618.421 38.7501 618.421 34.4508C618.421 26.7256 628.741 20.0081 641.072 20.0081C653.536 20.0081 660.371 24.9119 660.371 36.3318V57.4249C660.371 62.5303 662.583 65.1501 664.928 65.1501C665.598 65.1501 666.134 65.0158 666.737 64.6127C667.207 64.344 667.743 64.4784 668.145 64.8142L668.212 64.8814C668.614 65.2845 668.681 65.889 668.346 66.3593C666.134 69.3822 661.846 71.4646 657.423 71.4646C653.067 71.4646 648.778 68.5089 646.902 63.941C641.742 69.5165 636.314 71.9349 629.612 71.9349C621.504 71.8677 615.942 65.8219 615.942 59.6417ZM646.098 61.5226C645.897 60.6493 645.83 59.7761 645.83 58.7684L645.897 40.2279V39.7577C633.7 43.6539 630.417 49.0951 630.417 55.2753C630.417 60.6493 633.03 64.344 638.19 64.344C640.67 64.344 643.417 63.7394 646.098 61.5226Z" fill="#4D6E7F"/>
<path d="M673.071 47.5501C673.071 30.0173 682.118 20.0081 696.459 20.0081C700.613 20.0081 704.433 21.2844 707.717 23.9043V19.8065C707.717 16.1119 705.706 13.9623 701.418 13.3577C700.815 13.2905 700.412 12.7531 700.412 12.2157V12.0142C700.412 11.5439 700.68 11.0737 701.15 10.9394C707.248 8.58821 713.48 5.09507 719.511 0.392775C719.913 0.124072 720.449 0.0568926 720.851 0.325595L721.387 0.661474C721.722 0.863001 721.923 1.26605 721.923 1.66911V56.5516C721.923 64.7471 724.135 67.6356 728.29 68.5761C728.826 68.7105 729.228 69.1807 729.228 69.7181V69.8524C729.228 70.5242 728.692 71.0616 728.022 70.9944C718.707 70.7257 717.635 70.7257 707.65 71.0616V64.7471C703.763 69.2479 698.67 71.9349 693.376 71.9349C682.721 71.9349 673.071 63.1349 673.071 47.5501ZM707.449 62.1944V26.9943C705.036 24.7775 701.887 23.2997 699.072 23.2997C692.639 23.2997 688.283 29.0768 688.283 44.6616C688.283 60.1791 693.644 65.4188 700.144 65.4188C702.758 65.4188 705.304 64.344 707.449 62.1944Z" fill="#4D6E7F"/>
<path d="M735.93 67.8368C735.93 62.6643 735.729 57.3574 735.595 52.1849C735.595 51.5803 736.064 51.0429 736.667 50.9757H736.801C737.27 50.9086 737.806 51.2444 738.007 51.6475C743.234 63.5376 750.874 69.7178 757.441 69.7178C761.73 69.7178 764.544 66.8964 764.544 63.0674C764.544 52.4536 735.662 52.5208 735.662 35.0551C735.662 25.5161 743.234 20.1421 755.028 20.1421C760.456 20.1421 768.096 21.4856 771.379 23.2322C771.312 27.4642 771.178 31.7635 771.245 35.9956C771.245 36.6001 770.776 37.1375 770.173 37.2047H769.972C769.503 37.2719 769.034 37.0032 768.833 36.6001C763.539 26.4566 759.25 22.4932 753.42 22.4932C749.399 22.4932 746.987 25.0459 746.987 28.8078C746.987 39.1528 775.802 40.2276 775.802 56.1483C775.802 65.8887 769.168 72.0689 754.76 72.0689C748.662 72.0689 739.146 70.188 735.93 67.8368Z" fill="#4D6E7F"/>
</svg>
