<svg width="28" height="28" viewBox="0 0 28 28" fill="none" xmlns="http://www.w3.org/2000/svg">
<g clip-path="url(#clip0)">
<path d="M19.7827 28H8.22327C3.68484 28 0 24.4145 0 20.0042V8.00167C0 3.58554 3.68484 0 8.22327 0H19.7827C24.3152 0 28.006 3.58554 28.006 8.00167V20.0042C28 24.4145 24.3152 28 19.7827 28ZM8.22327 2.05306C4.85101 2.05306 2.10992 4.72028 2.10992 8.00167V20.0042C2.10992 23.2856 4.85101 25.9528 8.22327 25.9528H19.7827C23.155 25.9528 25.8961 23.2856 25.8961 20.0042V8.00167C25.8961 4.72028 23.155 2.05306 19.7827 2.05306H8.22327Z" fill="white"/>
<path d="M14 21.4021C9.78616 21.4021 6.35379 18.0623 6.35379 13.962C6.35379 11.9382 7.20738 9.97285 8.69814 8.5632C10.1528 7.18864 12.0464 6.46334 14.0361 6.52184C16.4165 6.59203 18.3941 7.36997 19.7467 8.77962C21.033 10.1132 21.6883 11.9148 21.6402 13.9854C21.5981 15.9683 20.7926 17.8283 19.374 19.2145C17.9493 20.6242 16.0378 21.4021 14 21.4021ZM13.8257 9.02528C12.5874 9.02528 11.4092 9.49907 10.4955 10.3589C9.50364 11.2948 8.93258 12.6108 8.93258 13.9561C8.93258 16.676 11.2048 18.887 14 18.887C16.7832 18.887 19.0073 16.7111 19.0674 13.9269C19.0975 12.5231 18.6827 11.3357 17.8712 10.4876C16.9935 9.57511 15.641 9.07208 13.9639 9.01943C13.9158 9.02528 13.8738 9.02528 13.8257 9.02528Z" fill="white"/>
<path d="M21.8326 8.04863C22.8186 8.04863 23.6179 7.27086 23.6179 6.31142C23.6179 5.35199 22.8186 4.57422 21.8326 4.57422C20.8466 4.57422 20.0472 5.35199 20.0472 6.31142C20.0472 7.27086 20.8466 8.04863 21.8326 8.04863Z" fill="white"/>
</g>
<defs>
<clipPath id="clip0">
<rect width="28" height="28" fill="white"/>
</clipPath>
</defs>
</svg>
