<svg width="504" height="115" viewBox="0 0 504 115" fill="none" xmlns="http://www.w3.org/2000/svg">
<path d="M12.3729 7.15912C11.3741 7.15912 10.549 7.6151 9.89763 8.52705C9.24623 9.39558 8.92053 10.5464 8.92053 11.9795V32.2379C8.92053 34.2789 9.24623 35.7554 9.89763 36.6674C10.549 37.5359 11.3741 37.9702 12.3729 37.9702V44.4841C10.8096 44.4841 9.33308 44.267 7.94344 43.8327C6.55379 43.3985 5.33785 42.7036 4.29562 41.7483C3.25338 40.7929 2.42828 39.5769 1.82031 38.1004C1.25577 36.5805 0.973495 34.7566 0.973495 32.6287V13.2822C0.973495 11.0675 1.25577 9.17845 1.82031 7.6151C2.42828 6.00832 3.25338 4.70553 4.29562 3.70672C5.33785 2.70791 6.55379 1.99138 7.94344 1.55711C9.33308 1.07942 10.8096 0.840576 12.3729 0.840576V7.15912ZM14.718 0.840576C16.2813 0.840576 17.7578 1.07942 19.1475 1.55711C20.5371 1.99138 21.753 2.70791 22.7953 3.70672C23.8375 4.70553 24.6409 6.00832 25.2054 7.6151C25.8134 9.17845 26.1174 11.0675 26.1174 13.2822V32.6287C26.1174 34.7566 25.8134 36.5805 25.2054 38.1004C24.6409 39.5769 23.8375 40.7929 22.7953 41.7483C21.753 42.7036 20.5371 43.3985 19.1475 43.8327C17.7578 44.267 16.2813 44.4841 14.718 44.4841V37.9702C15.7168 37.9702 16.5419 37.5359 17.1933 36.6674C17.8447 35.7554 18.1704 34.2789 18.1704 32.2379V11.9795C18.1704 10.5464 17.8447 9.39558 17.1933 8.52705C16.5419 7.6151 15.7168 7.15912 14.718 7.15912V0.840576Z" fill="white"/>
<path d="M41.0909 28.3295V21.6201C42.7845 21.6201 44.1307 20.9904 45.1295 19.7311C46.1283 18.4283 46.6277 16.7998 46.6277 14.8456C46.6277 12.7611 46.1283 11.1109 45.1295 9.89498C44.1307 8.63562 42.7628 8.00594 41.0257 8.00594V1.29656C43.0233 1.29656 44.7821 1.64397 46.302 2.33879C47.8654 2.99019 49.1899 3.90214 50.2755 5.07465C51.3612 6.24717 52.1863 7.65852 52.7508 9.30873C53.3154 10.9155 53.5977 12.696 53.5977 14.6502C53.5977 18.906 52.4903 22.2498 50.2755 24.6817C48.1042 27.1136 45.0427 28.3295 41.0909 28.3295ZM38.6807 1.29656V44.0282H31.3851V1.29656H38.6807Z" fill="white"/>
<path d="M57.7844 1.29656H65.3406V44.0933H57.7844V1.29656ZM67.2297 1.29656H77.0657V7.6151H67.2297V1.29656ZM67.2297 37.7096H77.1309V44.0282H67.2297V37.7096ZM67.2297 17.6466H73.939V24.0954H67.2297V17.6466Z" fill="white"/>
<path d="M92.2387 23.7046V17.2558C93.5849 17.2558 94.714 16.8215 95.6259 15.953C96.5379 15.0844 96.9939 13.8685 96.9939 12.3052C96.9939 10.9155 96.5379 9.80813 95.6259 8.98303C94.714 8.1145 93.5849 7.68024 92.2387 7.68024V1.29656C94.0192 1.29656 95.7128 1.49198 97.3196 1.88281C98.9264 2.23022 100.338 2.81648 101.554 3.64158C102.813 4.46669 103.79 5.57406 104.485 6.9637C105.223 8.30992 105.592 9.96012 105.592 11.9143C105.592 14.2593 105.093 16.257 104.094 17.9072C103.139 19.5574 101.749 20.8819 99.9252 21.8807L105.527 44.0282H97.6453L92.2387 23.7046ZM90.2194 1.29656V44.0282H82.4026V1.29656H90.2194Z" fill="white"/>
<path d="M125.055 1.29656L131.829 44.0282H123.882L122.058 33.3453H118.215L119.062 25.5936H121.342L120.169 18.2329L122.645 1.29656H125.055ZM120.56 1.29656L114.437 44.0282H108.184L114.437 1.29656H120.56Z" fill="white"/>
<path d="M138.506 44.0282V1.29656H146.388V44.0282H138.506ZM148.342 7.6151V1.29656H152.641V7.6151H148.342ZM132.252 1.29656H136.551V7.6151H132.252V1.29656Z" fill="white"/>
<path d="M157.211 1.29656H164.898V44.0282H157.211V1.29656Z" fill="white"/>
<path d="M181.647 7.15912C180.648 7.15912 179.823 7.6151 179.172 8.52705C178.52 9.39558 178.195 10.5464 178.195 11.9795V32.2379C178.195 34.2789 178.52 35.7554 179.172 36.6674C179.823 37.5359 180.648 37.9702 181.647 37.9702V44.4841C180.084 44.4841 178.607 44.267 177.217 43.8327C175.828 43.3985 174.612 42.7036 173.57 41.7483C172.527 40.7929 171.702 39.5769 171.094 38.1004C170.53 36.5805 170.247 34.7566 170.247 32.6287V13.2822C170.247 11.0675 170.53 9.17845 171.094 7.6151C171.702 6.00832 172.527 4.70553 173.57 3.70672C174.612 2.70791 175.828 1.99138 177.217 1.55711C178.607 1.07942 180.084 0.840576 181.647 0.840576V7.15912ZM183.992 0.840576C185.555 0.840576 187.032 1.07942 188.421 1.55711C189.811 1.99138 191.027 2.70791 192.069 3.70672C193.111 4.70553 193.915 6.00832 194.479 7.6151C195.087 9.17845 195.391 11.0675 195.391 13.2822V32.6287C195.391 34.7566 195.087 36.5805 194.479 38.1004C193.915 39.5769 193.111 40.7929 192.069 41.7483C191.027 42.7036 189.811 43.3985 188.421 43.8327C187.032 44.267 185.555 44.4841 183.992 44.4841V37.9702C184.991 37.9702 185.816 37.5359 186.467 36.6674C187.119 35.7554 187.444 34.2789 187.444 32.2379V11.9795C187.444 10.5464 187.119 9.39558 186.467 8.52705C185.816 7.6151 184.991 7.15912 183.992 7.15912V0.840576Z" fill="white"/>
<path d="M208.215 1.36169L222.741 44.0282H215.511L200.594 1.36169H208.215ZM207.043 27.9387V44.0282H200.594V9.17845L207.043 27.9387ZM216.553 1.29656H222.676V36.016L216.553 18.1026V1.29656Z" fill="white"/>
<path d="M255.279 23.7046V17.2558L260.229 1.29656H268.567L262.379 19.9265L268.567 44.0282H260.685L255.279 23.7046ZM253.259 1.29656V44.0282H245.443V1.29656H253.259Z" fill="white"/>
<path d="M273.814 1.29656H281.5V44.0282H273.814V1.29656Z" fill="white"/>
<path d="M294.602 1.36169L309.128 44.0282H301.897L286.98 1.36169H294.602ZM293.429 27.9387V44.0282H286.98V9.17845L293.429 27.9387ZM302.939 1.29656H309.063V36.016L302.939 18.1026V1.29656Z" fill="white"/>
<path d="M325.73 7.15912C324.731 7.15912 323.906 7.6151 323.255 8.52705C322.603 9.39558 322.278 10.5464 322.278 11.9795V32.2379C322.278 34.3223 322.603 35.7988 323.255 36.6674C323.906 37.5359 324.731 37.9702 325.73 37.9702V44.4841C324.167 44.4841 322.69 44.267 321.301 43.8327C319.911 43.3985 318.695 42.7036 317.653 41.7483C316.611 40.7929 315.786 39.5769 315.178 38.1004C314.613 36.5805 314.331 34.7566 314.331 32.6287V13.2822C314.331 11.0675 314.613 9.17845 315.178 7.6151C315.786 6.00832 316.611 4.70553 317.653 3.70672C318.695 2.70791 319.911 1.99138 321.301 1.55711C322.69 1.07942 324.167 0.840576 325.73 0.840576V7.15912ZM328.14 22.8578H338.888V44.0282H334.85L334.459 41.8134C333.721 42.5082 332.787 43.1162 331.658 43.6373C330.529 44.115 329.335 44.3973 328.075 44.4841V37.9702C329.031 37.9702 329.834 37.4708 330.485 36.472C331.18 35.4297 331.528 33.6492 331.528 31.1305V28.8506H328.14V22.8578ZM328.075 0.840576C329.639 0.840576 331.093 1.07942 332.44 1.55711C333.786 1.99138 334.937 2.70791 335.892 3.70672C336.847 4.70553 337.586 6.00832 338.107 7.6151C338.671 9.17845 338.954 11.0892 338.954 13.3474H331.528C331.528 11.0024 331.202 9.39558 330.55 8.52705C329.899 7.6151 329.074 7.15912 328.075 7.15912V0.840576Z" fill="white"/>
<path d="M353.939 28.3295V21.6201C355.633 21.6201 356.979 20.9904 357.978 19.7311C358.977 18.4283 359.476 16.7998 359.476 14.8456C359.476 12.7611 358.977 11.1109 357.978 9.89498C356.979 8.63562 355.611 8.00594 353.874 8.00594V1.29656C355.872 1.29656 357.63 1.64397 359.15 2.33879C360.714 2.99019 362.038 3.90214 363.124 5.07465C364.21 6.24717 365.035 7.65852 365.599 9.30873C366.164 10.9155 366.446 12.696 366.446 14.6502C366.446 18.906 365.339 22.2498 363.124 24.6817C360.953 27.1136 357.891 28.3295 353.939 28.3295ZM351.529 1.29656V44.0282H344.233V1.29656H351.529Z" fill="white"/>
<path d="M370.633 1.29656H378.319V44.0282H370.633V1.29656Z" fill="white"/>
<path d="M391.42 1.36169L405.947 44.0282H398.716L383.799 1.36169H391.42ZM390.248 27.9387V44.0282H383.799V9.17845L390.248 27.9387ZM399.758 1.29656H405.881V36.016L399.758 18.1026V1.29656Z" fill="white"/>
<path d="M410.954 40.706C410.954 39.6204 411.302 38.7084 411.996 37.9702C412.735 37.2319 413.647 36.8628 414.732 36.8628C415.818 36.8628 416.73 37.2319 417.468 37.9702C418.206 38.7084 418.576 39.6204 418.576 40.706C418.576 41.7917 418.206 42.7036 417.468 43.4419C416.73 44.1367 415.818 44.4841 414.732 44.4841C413.647 44.4841 412.735 44.1367 411.996 43.4419C411.302 42.7036 410.954 41.7917 410.954 40.706ZM410.954 21.1641C410.954 20.0785 411.302 19.1665 411.996 18.4283C412.735 17.69 413.647 17.3209 414.732 17.3209C415.818 17.3209 416.73 17.69 417.468 18.4283C418.206 19.1665 418.576 20.0785 418.576 21.1641C418.576 22.2498 418.206 23.1618 417.468 23.9C416.73 24.5948 415.818 24.9422 414.732 24.9422C413.647 24.9422 412.735 24.5948 411.996 23.9C411.302 23.1618 410.954 22.2498 410.954 21.1641Z" fill="white"/>
<path d="M12.9592 71.1914C14.4791 71.3217 15.8688 71.7125 17.1281 72.3639C18.3875 72.9719 19.4731 73.797 20.3851 74.8392C21.2971 75.838 21.9919 76.9888 22.4696 78.2916C22.9907 79.551 23.2513 80.8972 23.2513 82.3303C23.2513 84.6319 22.7953 86.6729 21.8833 88.4534C21.0148 90.2339 19.9943 91.8189 18.8218 93.2086C17.6492 94.5982 16.455 95.8359 15.2391 96.9215C14.0666 97.9638 13.1546 98.8974 12.5032 99.7225C12.0689 100.287 11.613 100.895 11.1353 101.546C10.701 102.154 10.2885 102.806 9.89763 103.501C9.50679 104.152 9.18109 104.847 8.92053 105.585C8.7034 106.323 8.59483 107.083 8.59483 107.865V114.379H1.10377V107.67C1.10377 106.584 1.25577 105.52 1.55975 104.478C1.90716 103.435 2.34143 102.437 2.86254 101.481C3.42709 100.482 4.03506 99.5271 4.68645 98.6152C5.38128 97.6598 6.0761 96.7695 6.77092 95.9444C7.5526 94.9891 8.44284 94.012 9.44165 93.0131C10.4405 92.0143 11.3958 90.9938 12.3078 89.9516C13.2197 88.9094 13.9797 87.8454 14.5877 86.7597C15.1956 85.6741 15.4996 84.6101 15.4996 83.5679C15.4996 82.2651 15.2825 81.2012 14.8482 80.3761C14.414 79.5075 13.7843 78.943 12.9592 78.6824V71.1914ZM8.13885 83.9587H0.778076C0.778076 82.352 0.973495 80.8103 1.36433 79.3338C1.75517 77.8139 2.34143 76.4894 3.1231 75.3603C3.9482 74.1878 4.99044 73.2324 6.2498 72.4942C7.5526 71.7559 9.09424 71.3217 10.8747 71.1914V78.6824C10.3536 78.7693 9.89762 79.0081 9.50679 79.399C9.15937 79.7464 8.8771 80.1806 8.65997 80.7018C8.48627 81.1795 8.35599 81.7223 8.26913 82.3303C8.18228 82.8948 8.13885 83.4376 8.13885 83.9587ZM22.0787 107.409V114.379H11.1353V107.409H22.0787Z" fill="white"/>
<path d="M47.7448 71.7125L37.127 114.379H29.8314L40.4491 71.7125H47.7448ZM36.3453 77.9659H27.812V71.6474H37.7784L36.3453 77.9659Z" fill="white"/>
<path d="M69.2983 71.6474H76.2683L87.2117 109.819L86.3649 114.379H81.6749L69.2983 71.6474ZM92.8138 71.6474H98.8066V114.379H92.8138V71.6474ZM76.138 102.98V114.379H69.3635V79.399L76.138 102.98ZM90.9247 71.973V97.3124L88.1888 106.497L84.9319 95.1628L90.9247 71.973Z" fill="white"/>
<path d="M104.285 71.6474H111.972V114.379H104.285V71.6474Z" fill="white"/>
<path d="M125.073 71.7125L139.599 114.379H132.369L117.452 71.7125H125.073ZM123.901 98.2895V114.379H117.452V79.5292L123.901 98.2895ZM133.411 71.6474H139.534V106.367L133.411 88.4534V71.6474Z" fill="white"/>
<path d="M157.765 107.93C158.764 107.93 159.437 107.518 159.784 106.692C160.132 105.867 160.306 104.738 160.306 103.305V71.5822H168.253V104.087C168.253 107.344 167.297 109.949 165.386 111.904C163.476 113.858 160.935 114.835 157.765 114.835V107.93ZM155.42 114.835C152.25 114.835 149.709 113.88 147.799 111.969C145.888 110.058 144.933 107.431 144.933 104.087V71.5822H152.88V103.305C152.88 104.738 153.053 105.867 153.401 106.692C153.748 107.518 154.421 107.93 155.42 107.93V114.835Z" fill="white"/>
<path d="M179.218 114.379V71.6474H187.1V114.379H179.218ZM189.054 77.9659V71.6474H193.353V77.9659H189.054ZM172.965 71.6474H177.264V77.9659H172.965V71.6474Z" fill="white"/>
<path d="M197.924 71.6474H205.48V114.444H197.924V71.6474ZM207.369 71.6474H217.205V77.9659H207.369V71.6474ZM207.369 108.06H217.27V114.379H207.369V108.06ZM207.369 87.9974H214.078V94.4462H207.369V87.9974Z" fill="white"/>
<path d="M232.834 78.6824C232.009 78.943 231.379 79.4424 230.945 80.1806C230.511 80.9189 230.293 81.6137 230.293 82.2651C230.293 83.2205 230.576 84.2193 231.14 85.2615C231.748 86.3038 232.487 87.2157 233.355 87.9974C234.441 88.9962 235.678 90.0167 237.068 91.059C238.501 92.0578 239.826 93.1651 241.042 94.3811C242.301 95.5536 243.343 96.8998 244.168 98.4197C245.037 99.9397 245.471 101.677 245.471 103.631C245.471 105.064 245.254 106.432 244.82 107.735C244.429 108.994 243.777 110.123 242.865 111.122C241.997 112.077 240.89 112.881 239.543 113.532C238.241 114.184 236.677 114.596 234.853 114.77V107.279C235.722 107.235 236.46 106.931 237.068 106.367C237.676 105.759 237.98 105.086 237.98 104.347C237.98 103.479 237.785 102.697 237.394 102.002C237.046 101.264 236.569 100.591 235.961 99.9831C234.745 98.7237 233.355 97.5078 231.792 96.3353C230.272 95.1628 228.817 93.9034 227.427 92.5572C226.081 91.1675 224.93 89.6693 223.975 88.0625C223.02 86.4123 222.542 84.5016 222.542 82.3303C222.542 80.8972 222.781 79.551 223.258 78.2916C223.78 76.9888 224.496 75.838 225.408 74.8392C226.32 73.797 227.406 72.9719 228.665 72.3639C229.924 71.7125 231.314 71.3217 232.834 71.1914V78.6824ZM237.654 83.9587C237.654 83.4376 237.611 82.8948 237.524 82.3303C237.437 81.7223 237.285 81.1795 237.068 80.7018C236.894 80.1806 236.612 79.7464 236.221 79.399C235.874 79.0081 235.44 78.7693 234.918 78.6824V71.1914C236.699 71.3217 238.241 71.7559 239.543 72.4942C240.89 73.2324 241.997 74.1878 242.865 75.3603C243.734 76.4894 244.385 77.8139 244.82 79.3338C245.254 80.8103 245.471 82.352 245.471 83.9587H237.654ZM229.903 102.198C229.903 102.676 229.946 103.218 230.033 103.826C230.163 104.391 230.337 104.934 230.554 105.455C230.771 105.933 231.075 106.345 231.466 106.692C231.857 107.04 232.356 107.235 232.964 107.279V114.77C231.705 114.683 230.445 114.357 229.186 113.793C227.97 113.228 226.863 112.425 225.864 111.383C224.865 110.34 224.04 109.059 223.389 107.539C222.781 106.019 222.477 104.239 222.477 102.198H229.903Z" fill="white"/>
<path d="M283.069 71.6474L289.844 114.379H281.897L280.073 103.696H276.23L277.076 95.9444H279.356L278.184 88.5837L280.659 71.6474H283.069ZM278.575 71.6474L272.452 114.379H266.198L272.452 71.6474H278.575Z" fill="white"/>
<path d="M296.52 114.379V71.6474H304.402V114.379H296.52ZM306.356 77.9659V71.6474H310.655V77.9659H306.356ZM290.267 71.6474H294.566V77.9659H290.267V71.6474Z" fill="white"/>
<path d="M342.821 78.6824C341.996 78.943 341.366 79.4424 340.932 80.1806C340.497 80.9189 340.28 81.6137 340.28 82.2651C340.28 83.2205 340.563 84.2193 341.127 85.2615C341.735 86.3038 342.473 87.2157 343.342 87.9974C344.427 88.9962 345.665 90.0167 347.055 91.059C348.488 92.0578 349.812 93.1651 351.028 94.3811C352.288 95.5536 353.33 96.8998 354.155 98.4197C355.024 99.9397 355.458 101.677 355.458 103.631C355.458 105.064 355.241 106.432 354.806 107.735C354.416 108.994 353.764 110.123 352.852 111.122C351.984 112.077 350.876 112.881 349.53 113.532C348.227 114.184 346.664 114.596 344.84 114.77V107.279C345.709 107.235 346.447 106.931 347.055 106.367C347.663 105.759 347.967 105.086 347.967 104.347C347.967 103.479 347.771 102.697 347.38 102.002C347.033 101.264 346.555 100.591 345.947 99.9831C344.731 98.7237 343.342 97.5078 341.778 96.3353C340.259 95.1628 338.804 93.9034 337.414 92.5572C336.068 91.1675 334.917 89.6693 333.962 88.0625C333.006 86.4123 332.529 84.5016 332.529 82.3303C332.529 80.8972 332.767 79.551 333.245 78.2916C333.766 76.9888 334.483 75.838 335.395 74.8392C336.307 73.797 337.392 72.9719 338.652 72.3639C339.911 71.7125 341.301 71.3217 342.821 71.1914V78.6824ZM347.641 83.9587C347.641 83.4376 347.598 82.8948 347.511 82.3303C347.424 81.7223 347.272 81.1795 347.055 80.7018C346.881 80.1806 346.599 79.7464 346.208 79.399C345.861 79.0081 345.426 78.7693 344.905 78.6824V71.1914C346.686 71.3217 348.227 71.7559 349.53 72.4942C350.876 73.2324 351.984 74.1878 352.852 75.3603C353.721 76.4894 354.372 77.8139 354.806 79.3338C355.241 80.8103 355.458 82.352 355.458 83.9587H347.641ZM339.889 102.198C339.889 102.676 339.933 103.218 340.02 103.826C340.15 104.391 340.324 104.934 340.541 105.455C340.758 105.933 341.062 106.345 341.453 106.692C341.844 107.04 342.343 107.235 342.951 107.279V114.77C341.692 114.683 340.432 114.357 339.173 113.793C337.957 113.228 336.85 112.425 335.851 111.383C334.852 110.34 334.027 109.059 333.375 107.539C332.767 106.019 332.463 104.239 332.463 102.198H339.889Z" fill="white"/>
<path d="M372.04 77.5099C371.042 77.5099 370.216 77.9659 369.565 78.8779C368.914 79.7464 368.588 80.8972 368.588 82.3303V102.589C368.588 104.63 368.914 106.106 369.565 107.018C370.216 107.887 371.042 108.321 372.04 108.321V114.835C370.477 114.835 369.001 114.618 367.611 114.184C366.221 113.749 365.005 113.054 363.963 112.099C362.921 111.144 362.096 109.928 361.488 108.451C360.923 106.931 360.641 105.107 360.641 102.98V83.633C360.641 81.4183 360.923 79.5293 361.488 77.9659C362.096 76.3591 362.921 75.0563 363.963 74.0575C365.005 73.0587 366.221 72.3422 367.611 71.9079C369.001 71.4302 370.477 71.1914 372.04 71.1914V77.5099ZM374.385 71.1914C375.949 71.1914 377.425 71.4302 378.815 71.9079C380.205 72.3422 381.421 73.0587 382.463 74.0575C383.505 75.0563 384.308 76.3591 384.873 77.9659C385.481 79.5293 385.785 81.4183 385.785 83.633V102.98C385.785 105.107 385.481 106.931 384.873 108.451C384.308 109.928 383.505 111.144 382.463 112.099C381.421 113.054 380.205 113.749 378.815 114.184C377.425 114.618 375.949 114.835 374.385 114.835V108.321C375.384 108.321 376.209 107.887 376.861 107.018C377.512 106.106 377.838 104.63 377.838 102.589V82.3303C377.838 80.8972 377.512 79.7464 376.861 78.8779C376.209 77.9659 375.384 77.5099 374.385 77.5099V71.1914Z" fill="white"/>
<path d="M398.609 71.7125L413.135 114.379H405.904L390.987 71.7125H398.609ZM397.436 98.2895V114.379H390.987V79.5292L397.436 98.2895ZM406.947 71.6474H413.07V106.367L406.947 88.4534V71.6474Z" fill="white"/>
<path d="M441.112 114.379V71.6474H448.994V114.379H441.112ZM450.948 77.9659V71.6474H455.248V77.9659H450.948ZM434.859 71.6474H439.158V77.9659H434.859V71.6474Z" fill="white"/>
<path d="M473.844 71.6474L480.619 114.379H472.672L470.848 103.696H467.005L467.852 95.9444H470.132L468.959 88.5837L471.434 71.6474H473.844ZM469.35 71.6474L463.227 114.379H456.973L463.227 71.6474H469.35Z" fill="white"/>
<path d="M488.566 94.5765L481.401 71.6474H489.152L496.448 102.002V114.379H488.566V94.5765ZM496.969 94.3811L494.494 84.1542L497.36 71.6474H503.613L496.969 94.3811Z" fill="white"/>
</svg>
