<svg width="60" height="63" viewBox="0 0 60 63" fill="none" xmlns="http://www.w3.org/2000/svg">
<path d="M37.9536 35.4721C38.7489 35.4721 39.2791 34.9119 39.2791 34.0715V30.2896L41.6651 26.5078C41.9302 26.0876 41.9302 25.3873 41.6651 24.9671L39.2791 21.0452V17.2633C39.2791 16.4229 38.7489 15.8627 37.9536 15.8627H34.3746L30.7957 13.3414C30.398 13.0613 29.7352 13.0613 29.3376 13.3414L25.626 15.8627H22.0471C21.2517 15.8627 20.7215 16.4229 20.7215 17.2633V21.0452L18.3356 24.827C18.0704 25.2472 18.0704 25.9475 18.3356 26.3677L20.7215 30.2896V34.0715C20.7215 34.9119 21.2517 35.4721 22.0471 35.4721V48.0782C22.0471 48.6385 22.3122 49.0587 22.8424 49.3388C23.2401 49.619 23.9028 49.4789 24.3005 49.1988L30.0003 44.2964L35.8327 49.1988C36.0978 49.3388 36.363 49.4789 36.6281 49.4789C36.7606 49.4789 37.0257 49.4789 37.1583 49.3388C37.5559 49.0587 37.9536 48.6385 37.9536 48.0782V35.4721ZM35.3025 45.1368L30.7957 41.355C30.2654 40.9348 29.6027 40.9348 29.205 41.355L24.6982 45.1368V35.4721H25.626L29.205 37.9934C29.4701 38.1334 29.7352 38.2735 30.0003 38.2735C30.2654 38.2735 30.5306 38.1334 30.7957 37.9934L34.3746 35.4721H35.3025V45.1368ZM36.8932 29.029C36.7606 29.3092 36.6281 29.5893 36.6281 29.8694V32.6708H33.977C33.7119 32.6708 33.4468 32.8109 33.1816 32.9509L30.0003 35.192L26.819 32.9509C26.5539 32.8109 26.2888 32.6708 26.0237 32.6708H23.3726V29.8694C23.3726 29.5893 23.2401 29.3092 23.1075 29.029L20.9866 25.6674L23.1075 22.3058C23.2401 22.0256 23.3726 21.7455 23.3726 21.4654V18.664H26.0237C26.2888 18.664 26.5539 18.524 26.819 18.3839L30.0003 16.1428L33.1816 18.3839C33.4468 18.524 33.7119 18.664 33.977 18.664H36.6281V21.4654C36.6281 21.7455 36.7606 22.0256 36.8932 22.3058L39.014 25.6674L36.8932 29.029Z" fill="#AFA09A"/>
<g opacity="0.5" clip-path="url(#clip0)">
<path d="M59.5 33.3008C59.4595 49.3421 46.1885 62.3507 29.9392 62.3108C13.6899 62.2709 0.479762 49.2423 0.500023 33.2808C0.520284 17.04 13.8115 4.2509 30.0811 4.31076C46.614 4.37061 59.5 17.3593 59.5 33.3008ZM30.0203 57.3627C43.1089 57.3827 54.5563 47.1075 54.5361 33.2609C54.5158 19.5939 43.2912 9.17901 29.9595 9.21891C16.5062 9.23886 5.42344 19.8133 5.46396 33.3207C5.50448 47.3269 17.0938 57.4226 30.0203 57.3627Z" fill="#907F78"/>
</g>
<g clip-path="url(#clip1)">
<path d="M59.5 29.3008C59.4595 45.3421 46.1885 58.3507 29.9392 58.3108C13.6899 58.2709 0.479762 45.2423 0.500023 29.2808C0.520284 13.04 13.8115 0.250901 30.0811 0.310756C46.614 0.370612 59.5 13.3593 59.5 29.3008ZM30.0203 53.3627C43.1089 53.3827 54.5563 43.1075 54.5361 29.2609C54.5158 15.5939 43.2912 5.17901 29.9595 5.21891C16.5062 5.23886 5.42344 15.8133 5.46396 29.3207C5.50448 43.3269 17.0938 53.4226 30.0203 53.3627Z" fill="white"/>
</g>
<path d="M37.9536 33.4721C38.7489 33.4721 39.2791 32.9119 39.2791 32.0715V28.2896L41.6651 24.5078C41.9302 24.0876 41.9302 23.3873 41.6651 22.9671L39.2791 19.0452V15.2633C39.2791 14.4229 38.7489 13.8627 37.9536 13.8627H34.3746L30.7957 11.3414C30.398 11.0613 29.7352 11.0613 29.3376 11.3414L25.626 13.8627H22.0471C21.2517 13.8627 20.7215 14.4229 20.7215 15.2633V19.0452L18.3356 22.827C18.0704 23.2472 18.0704 23.9475 18.3356 24.3677L20.7215 28.2896V32.0715C20.7215 32.9119 21.2517 33.4721 22.0471 33.4721V46.0782C22.0471 46.6385 22.3122 47.0587 22.8424 47.3388C23.2401 47.619 23.9028 47.4789 24.3005 47.1988L30.0003 42.2964L35.8327 47.1988C36.0978 47.3388 36.363 47.4789 36.6281 47.4789C36.7606 47.4789 37.0257 47.4789 37.1583 47.3388C37.5559 47.0587 37.9536 46.6385 37.9536 46.0782V33.4721ZM35.3025 43.1368L30.7957 39.355C30.2654 38.9348 29.6027 38.9348 29.205 39.355L24.6982 43.1368V33.4721H25.626L29.205 35.9934C29.4701 36.1334 29.7352 36.2735 30.0003 36.2735C30.2654 36.2735 30.5306 36.1334 30.7957 35.9934L34.3746 33.4721H35.3025V43.1368ZM36.8932 27.029C36.7606 27.3092 36.6281 27.5893 36.6281 27.8694V30.6708H33.977C33.7119 30.6708 33.4468 30.8109 33.1816 30.9509L30.0003 33.192L26.819 30.9509C26.5539 30.8109 26.2888 30.6708 26.0237 30.6708H23.3726V27.8694C23.3726 27.5893 23.2401 27.3092 23.1075 27.029L20.9866 23.6674L23.1075 20.3058C23.2401 20.0256 23.3726 19.7455 23.3726 19.4654V16.664H26.0237C26.2888 16.664 26.5539 16.524 26.819 16.3839L30.0003 14.1428L33.1816 16.3839C33.4468 16.524 33.7119 16.664 33.977 16.664H36.6281V19.4654C36.6281 19.7455 36.7606 20.0256 36.8932 20.3058L39.014 23.6674L36.8932 27.029Z" fill="white"/>
<defs>
<clipPath id="clip0">
<rect width="59" height="58" fill="white" transform="translate(0.5 4.31152)"/>
</clipPath>
<clipPath id="clip1">
<rect width="59" height="58" fill="white" transform="translate(0.5 0.311523)"/>
</clipPath>
</defs>
</svg>
