<svg width="30" height="29" viewBox="0 0 30 29" fill="none" xmlns="http://www.w3.org/2000/svg">
<path d="M25.2163 24.5068H20.8313V17.8327C20.8313 16.2413 20.802 14.1925 18.5506 14.1925C16.2667 14.1925 15.9173 15.9265 15.9173 17.7169V24.5063H11.5322V10.7818H15.7418V12.6574H15.8008C16.2221 11.9574 16.8308 11.3815 17.5623 10.9911C18.2937 10.6007 19.1204 10.4104 19.9543 10.4405C24.3987 10.4405 25.2181 13.2816 25.2181 16.9777L25.2163 24.5068ZM6.58441 8.90581C6.08112 8.9059 5.58909 8.76094 5.17057 8.48926C4.75204 8.21759 4.42584 7.83139 4.23315 7.37952C4.04046 6.92765 3.98997 6.4304 4.08807 5.95065C4.18617 5.47089 4.42845 5.03018 4.78427 4.68425C5.14009 4.33831 5.59347 4.10269 6.08707 4.00718C6.58068 3.91167 7.09233 3.96055 7.55735 4.14766C8.02237 4.33476 8.41985 4.65168 8.69954 5.05833C8.97923 5.46498 9.12857 5.94311 9.12866 6.43225C9.12872 6.75702 9.06295 7.07863 8.93512 7.3787C8.80729 7.67878 8.61992 7.95145 8.38367 8.18114C8.14741 8.41083 7.8669 8.59305 7.55819 8.71739C7.24947 8.84172 6.91859 8.90575 6.58441 8.90581ZM8.77693 24.5068H4.38732V10.7818H8.77693V24.5068ZM27.4024 0.00195957H2.18385C1.61146 -0.00431817 1.05989 0.210515 0.650398 0.599249C0.240905 0.987984 0.00698571 1.51882 0 2.0751V26.686C0.00674662 27.2426 0.240529 27.7737 0.650008 28.1629C1.05949 28.552 1.61117 28.7673 2.18385 28.7614H27.4024C27.9762 28.7683 28.5295 28.5537 28.9406 28.1646C29.3517 27.7755 29.587 27.2437 29.5949 26.686V2.07333C29.5868 1.51594 29.3513 0.984501 28.9401 0.595776C28.529 0.207051 27.976 -0.00716813 27.4024 0.000183141" fill="white"/>
</svg>
