<svg width="41" height="41" viewBox="0 0 41 41" fill="none" xmlns="http://www.w3.org/2000/svg">
<g clip-path="url(#clip0)">
<path d="M20.6249 17.1535C18.6145 17.1361 17.0374 18.7133 17.02 20.689C17.02 22.6647 18.5798 24.2592 20.5382 24.2592C22.5486 24.2765 24.1258 22.6994 24.1431 20.7237C24.1604 18.7479 22.6006 17.1535 20.6249 17.1535ZM20.5729 21.2609C20.2956 21.2436 20.0183 20.949 20.053 20.689C20.0703 20.4117 20.3649 20.1344 20.6422 20.1864C20.9542 20.2384 21.1275 20.429 21.1448 20.741C21.1448 20.9836 20.8502 21.2609 20.5729 21.2609Z" fill="#4D6E7F"/>
<path d="M20.5902 0.706299C9.55036 0.706299 0.590225 9.66644 0.590225 20.7063C0.590225 31.7462 9.55036 40.7063 20.5902 40.7063C31.6301 40.7063 40.5902 31.7462 40.5902 20.7063C40.5902 9.66644 31.6474 0.706299 20.5902 0.706299ZM28.0599 29.5625C23.3459 33.5486 16.7601 32.9247 12.8779 29.3371C14.3511 27.6734 15.8242 26.0096 17.332 24.3285C17.1587 24.1552 17.0027 23.9645 16.8121 23.7566C15.0616 25.1604 13.3285 26.5642 11.5608 28.0027C11.3355 27.6907 11.1102 27.4134 10.8675 27.0841C11.5954 26.6162 12.2887 26.1482 12.9819 25.6976C14.0738 24.9871 15.1483 24.2765 16.2401 23.5486C16.3441 23.4793 16.3788 23.3406 16.4481 23.2366C16.3268 23.254 16.1708 23.2193 16.0842 23.2713C14.3857 24.2245 12.6873 25.195 11.0062 26.1656C10.8502 26.2522 10.7115 26.3389 10.5556 26.4082C8.30253 22.9767 8.04256 16.5122 12.7393 12.1794C17.2453 8.01999 24.0564 8.21063 28.3025 12.0581C26.8121 13.7219 25.3389 15.3857 23.8311 17.0841C24.0044 17.2748 24.1777 17.4481 24.3684 17.656C26.1015 16.2522 27.8346 14.8484 29.6197 13.4099C29.845 13.7219 30.053 13.9992 30.2956 14.3112C30.0703 14.4671 29.8623 14.6058 29.6543 14.7444C28.1292 15.7496 26.5868 16.7548 25.0616 17.76C25.0096 17.7947 24.923 17.8293 24.8883 17.8813C24.819 17.968 24.7843 18.0893 24.7497 18.176C24.8537 18.176 24.975 18.1933 25.0443 18.1586C25.6336 17.8467 26.2055 17.5001 26.7774 17.1708C27.9559 16.4949 29.1344 15.8363 30.3129 15.1604C30.4169 15.091 30.5382 15.0391 30.6422 14.9871C33.0859 18.9385 32.9472 25.4377 28.0599 29.5625Z" fill="#4D6E7F"/>
</g>
<defs>
<clipPath id="clip0">
<rect width="40" height="40" fill="white" transform="translate(0.590225 0.706299)"/>
</clipPath>
</defs>
</svg>
