<svg width="29" height="30" viewBox="0 0 29 30" fill="none" xmlns="http://www.w3.org/2000/svg">
<g clip-path="url(#clip0)">
<path d="M14.5251 12.7037C13.0676 12.6912 11.9242 13.8346 11.9116 15.267C11.9116 16.6994 13.0425 17.8554 14.4623 17.8554C15.9199 17.8679 17.0633 16.7245 17.0758 15.2921C17.0884 13.8597 15.9575 12.7037 14.5251 12.7037ZM14.4874 15.6816C14.2864 15.6691 14.0854 15.4554 14.1105 15.267C14.1231 15.0659 14.3367 14.8649 14.5377 14.9026C14.7639 14.9403 14.8895 15.0785 14.9021 15.3047C14.9021 15.4806 14.6885 15.6816 14.4874 15.6816Z" fill="white"/>
<path d="M14.5 0.779785C6.4961 0.779785 0 7.27589 0 15.2798C0 23.2837 6.4961 29.7798 14.5 29.7798C22.5039 29.7798 29 23.2837 29 15.2798C29 7.27589 22.5165 0.779785 14.5 0.779785ZM19.9155 21.7005C16.4978 24.5904 11.7231 24.1381 8.90858 21.5372C9.9766 20.3309 11.0446 19.1247 12.1378 17.9059C12.0121 17.7802 11.899 17.642 11.7608 17.4912C10.4918 18.509 9.23527 19.5268 7.95364 20.5696C7.79029 20.3435 7.62695 20.1424 7.45104 19.9037C7.97877 19.5644 8.48137 19.2252 8.98397 18.8985C9.77556 18.3833 10.5546 17.8682 11.3462 17.3404C11.4216 17.2902 11.4467 17.1897 11.497 17.1143C11.409 17.1268 11.2959 17.1017 11.2331 17.1394C10.0017 17.8305 8.77036 18.5341 7.55156 19.2378C7.43847 19.3006 7.33795 19.3634 7.22487 19.4137C5.59142 16.9258 5.40295 12.2391 8.80806 9.09781C12.075 6.08221 17.013 6.22043 20.0914 9.00985C19.0108 10.2161 17.9428 11.4223 16.8497 12.6537C16.9753 12.7919 17.101 12.9176 17.2392 13.0683C18.4957 12.0506 19.7522 11.0328 21.0464 9.98992C21.2097 10.2161 21.3605 10.4171 21.5364 10.6433C21.373 10.7564 21.2223 10.8569 21.0715 10.9574C19.9658 11.6862 18.8475 12.415 17.7418 13.1437C17.7041 13.1689 17.6412 13.194 17.6161 13.2317C17.5659 13.2945 17.5407 13.3825 17.5156 13.4453C17.591 13.4453 17.6789 13.4579 17.7292 13.4327C18.1564 13.2066 18.5711 12.9553 18.9857 12.7165C19.8401 12.2265 20.6945 11.749 21.549 11.259C21.6244 11.2087 21.7123 11.171 21.7877 11.1333C23.5594 13.9982 23.4588 18.71 19.9155 21.7005Z" fill="white"/>
</g>
<defs>
<clipPath id="clip0">
<rect width="29" height="29" fill="white" transform="translate(0 0.779785)"/>
</clipPath>
</defs>
</svg>
