<svg width="60" height="63" viewBox="0 0 60 63" fill="none" xmlns="http://www.w3.org/2000/svg">
<g opacity="0.5" clip-path="url(#clip0)">
<path d="M59.5 33.7528C59.4595 49.7941 46.1885 62.8027 29.9392 62.7628C13.6899 62.7229 0.479762 49.6943 0.500023 33.7329C0.520284 17.4921 13.8115 4.70293 30.0811 4.76278C46.614 4.82264 59.5 17.8113 59.5 33.7528ZM30.0203 57.8147C43.1089 57.8347 54.5563 47.5595 54.5361 33.7129C54.5158 20.0459 43.2912 9.63103 29.9595 9.67094C16.5062 9.69089 5.42344 20.2654 5.46396 33.7728C5.50448 47.779 17.0938 57.8746 30.0203 57.8147Z" fill="#94889E"/>
</g>
<g clip-path="url(#clip1)">
<path d="M59.5 29.7528C59.4595 45.7941 46.1885 58.8027 29.9392 58.7628C13.6899 58.7229 0.479762 45.6943 0.500023 29.7329C0.520284 13.4921 13.8115 0.702927 30.0811 0.762782C46.614 0.822638 59.5 13.8113 59.5 29.7528ZM30.0203 53.8147C43.1089 53.8347 54.5563 43.5595 54.5361 29.7129C54.5158 16.0459 43.2912 5.63103 29.9595 5.67094C16.5062 5.69089 5.42344 16.2654 5.46396 29.7728C5.50448 43.779 17.0938 53.8746 30.0203 53.8147Z" fill="white"/>
</g>
<path fill-rule="evenodd" clip-rule="evenodd" d="M34.665 21.9425C36.0186 21.9425 37.2298 22.7373 37.7997 23.9295C38.6191 24.1463 39.2959 24.6882 39.759 25.3746L44.4611 32.7447C45.1379 33.8285 45.5298 35.1291 45.5298 36.502C45.5298 40.4038 42.395 43.583 38.5478 43.583C34.9856 43.583 32.0646 40.8735 31.6371 37.3691C30.9959 37.7303 30.2834 37.911 29.4998 37.911C28.7161 37.911 28.0036 37.6942 27.3624 37.3691C26.9349 40.8735 24.0139 43.583 20.4517 43.583C16.6045 43.583 13.4697 40.4038 13.4697 36.502C13.4697 35.1291 13.8616 33.8285 14.5384 32.7447L19.2405 25.4108C19.7036 24.6882 20.4161 24.1463 21.2354 23.8934C21.7697 22.7373 22.9809 21.9425 24.3345 21.9425C25.6525 21.9425 26.7925 22.7012 27.398 23.785H31.6015C32.207 22.7012 33.347 21.9425 34.665 21.9425ZM20.4517 31.408C17.6732 31.408 15.429 33.684 15.429 36.502C15.429 39.32 17.6732 41.596 20.4517 41.596C23.2302 41.596 25.4744 39.32 25.4744 36.502C25.4744 33.684 23.1946 31.408 20.4517 31.408ZM38.5478 31.408C35.7693 31.408 33.5251 33.684 33.5251 36.502C33.5251 39.32 35.7693 41.596 38.5478 41.596C41.3264 41.596 43.5706 39.32 43.5706 36.502C43.5706 33.684 41.3264 31.408 38.5478 31.408ZM29.4998 30.577C27.968 30.577 26.7212 31.8415 26.7212 33.395C26.7212 34.9485 27.968 36.213 29.4998 36.213C31.0315 36.213 32.2783 34.9485 32.2783 33.395C32.2783 31.8415 31.0315 30.577 29.4998 30.577Z" fill="#ADA2B6"/>
<g clip-path="url(#clip2)">
<path fill-rule="evenodd" clip-rule="evenodd" d="M34.665 18.9425C36.0186 18.9425 37.2298 19.7373 37.7997 20.9295C38.6191 21.1463 39.2959 21.6882 39.759 22.3746L44.4611 29.7447C45.1379 30.8285 45.5298 32.1291 45.5298 33.502C45.5298 37.4038 42.395 40.583 38.5478 40.583C34.9856 40.583 32.0646 37.8735 31.6371 34.3691C30.9959 34.7303 30.2834 34.911 29.4998 34.911C28.7161 34.911 28.0036 34.6942 27.3624 34.3691C26.9349 37.8735 24.0139 40.583 20.4517 40.583C16.6045 40.583 13.4697 37.4038 13.4697 33.502C13.4697 32.1291 13.8616 30.8285 14.5384 29.7447L19.2405 22.4108C19.7036 21.6882 20.4161 21.1463 21.2354 20.8934C21.7697 19.7373 22.9809 18.9425 24.3345 18.9425C25.6525 18.9425 26.7925 19.7012 27.398 20.785H31.6015C32.207 19.7012 33.347 18.9425 34.665 18.9425ZM20.4517 28.408C17.6732 28.408 15.429 30.684 15.429 33.502C15.429 36.32 17.6732 38.596 20.4517 38.596C23.2302 38.596 25.4744 36.32 25.4744 33.502C25.4744 30.684 23.1946 28.408 20.4517 28.408ZM38.5478 28.408C35.7693 28.408 33.5251 30.684 33.5251 33.502C33.5251 36.32 35.7693 38.596 38.5478 38.596C41.3264 38.596 43.5706 36.32 43.5706 33.502C43.5706 30.684 41.3264 28.408 38.5478 28.408ZM29.4998 27.577C27.968 27.577 26.7212 28.8415 26.7212 30.395C26.7212 31.9485 27.968 33.213 29.4998 33.213C31.0315 33.213 32.2783 31.9485 32.2783 30.395C32.2783 28.8415 31.0315 27.577 29.4998 27.577Z" fill="white"/>
</g>
<defs>
<clipPath id="clip0">
<rect width="59" height="58" fill="white" transform="translate(0.5 4.76367)"/>
</clipPath>
<clipPath id="clip1">
<rect width="59" height="58" fill="white" transform="translate(0.5 0.763672)"/>
</clipPath>
<clipPath id="clip2">
<rect width="32.0601" height="21.6405" fill="white" transform="translate(13.4697 18.9425)"/>
</clipPath>
</defs>
</svg>
