<svg width="151" height="143" viewBox="0 0 151 143" fill="none" xmlns="http://www.w3.org/2000/svg">
<circle cx="5.91265" cy="5.35534" r="5.07873" fill="#2E5063" fill-opacity="0.2"/>
<circle cx="29.1184" cy="5.35534" r="5.07873" fill="#2E5063" fill-opacity="0.2"/>
<circle cx="52.3242" cy="5.35534" r="5.07873" fill="#2E5063" fill-opacity="0.2"/>
<circle cx="75.53" cy="5.35534" r="5.07873" fill="#2E5063" fill-opacity="0.2"/>
<circle cx="98.7357" cy="5.35534" r="5.07873" fill="#2E5063" fill-opacity="0.2"/>
<circle cx="121.941" cy="5.35534" r="5.07873" fill="#2E5063" fill-opacity="0.2"/>
<circle cx="145.147" cy="5.35534" r="5.07873" fill="#2E5063" fill-opacity="0.2"/>
<circle cx="5.91265" cy="24.2272" r="5.07873" fill="#2E5063" fill-opacity="0.2"/>
<circle cx="29.1184" cy="24.2272" r="5.07873" fill="#2E5063" fill-opacity="0.2"/>
<circle cx="52.3242" cy="24.2272" r="5.07873" fill="#2E5063" fill-opacity="0.2"/>
<circle cx="75.53" cy="24.2272" r="5.07873" fill="#2E5063" fill-opacity="0.2"/>
<circle cx="98.7357" cy="24.2272" r="5.07873" fill="#2E5063" fill-opacity="0.2"/>
<circle cx="121.941" cy="24.2272" r="5.07873" fill="#2E5063" fill-opacity="0.2"/>
<circle cx="145.147" cy="24.2272" r="5.07873" fill="#2E5063" fill-opacity="0.2"/>
<circle cx="5.91265" cy="43.0995" r="5.07873" fill="#2E5063" fill-opacity="0.2"/>
<circle cx="29.1184" cy="43.0992" r="5.07873" fill="#2E5063" fill-opacity="0.2"/>
<circle cx="52.3242" cy="43.0992" r="5.07873" fill="#2E5063" fill-opacity="0.2"/>
<circle cx="75.53" cy="43.0992" r="5.07873" fill="#2E5063" fill-opacity="0.2"/>
<circle cx="98.7357" cy="43.0992" r="5.07873" fill="#2E5063" fill-opacity="0.2"/>
<circle cx="121.941" cy="43.0992" r="5.07873" fill="#2E5063" fill-opacity="0.2"/>
<circle cx="145.147" cy="43.0992" r="5.07873" fill="#2E5063" fill-opacity="0.2"/>
<circle cx="5.91265" cy="61.9711" r="5.07873" fill="#2E5063" fill-opacity="0.2"/>
<circle cx="29.1184" cy="61.9708" r="5.07873" fill="#2E5063" fill-opacity="0.2"/>
<circle cx="52.3242" cy="61.9708" r="5.07873" fill="#2E5063" fill-opacity="0.2"/>
<circle cx="75.53" cy="61.9708" r="5.07873" fill="#2E5063" fill-opacity="0.2"/>
<circle cx="98.7357" cy="61.9708" r="5.07873" fill="#2E5063" fill-opacity="0.2"/>
<circle cx="121.941" cy="61.9708" r="5.07873" fill="#2E5063" fill-opacity="0.2"/>
<circle cx="145.147" cy="61.9708" r="5.07873" fill="#2E5063" fill-opacity="0.2"/>
<circle cx="5.91265" cy="80.8431" r="5.07873" fill="#2E5063" fill-opacity="0.2"/>
<circle cx="29.1184" cy="80.8429" r="5.07873" fill="#2E5063" fill-opacity="0.2"/>
<circle cx="52.3242" cy="80.8429" r="5.07873" fill="#2E5063" fill-opacity="0.2"/>
<circle cx="75.53" cy="80.8429" r="5.07873" fill="#2E5063" fill-opacity="0.2"/>
<circle cx="98.7357" cy="80.8429" r="5.07873" fill="#2E5063" fill-opacity="0.2"/>
<circle cx="121.941" cy="80.8429" r="5.07873" fill="#2E5063" fill-opacity="0.2"/>
<circle cx="145.147" cy="80.8429" r="5.07873" fill="#2E5063" fill-opacity="0.2"/>
<circle cx="5.91265" cy="99.7145" r="5.07873" fill="#2E5063" fill-opacity="0.2"/>
<circle cx="29.1184" cy="99.7145" r="5.07873" fill="#2E5063" fill-opacity="0.2"/>
<circle cx="52.3242" cy="99.7145" r="5.07873" fill="#2E5063" fill-opacity="0.2"/>
<circle cx="75.53" cy="99.7145" r="5.07873" fill="#2E5063" fill-opacity="0.2"/>
<circle cx="98.7357" cy="99.7145" r="5.07873" fill="#2E5063" fill-opacity="0.2"/>
<circle cx="121.941" cy="99.7145" r="5.07873" fill="#2E5063" fill-opacity="0.2"/>
<circle cx="145.147" cy="99.7145" r="5.07873" fill="#2E5063" fill-opacity="0.2"/>
<circle cx="5.91265" cy="118.586" r="5.07873" fill="#2E5063" fill-opacity="0.2"/>
<circle cx="29.1184" cy="118.586" r="5.07873" fill="#2E5063" fill-opacity="0.2"/>
<circle cx="52.3242" cy="118.586" r="5.07873" fill="#2E5063" fill-opacity="0.2"/>
<circle cx="75.53" cy="118.586" r="5.07873" fill="#2E5063" fill-opacity="0.2"/>
<circle cx="98.7357" cy="118.586" r="5.07873" fill="#2E5063" fill-opacity="0.2"/>
<circle cx="121.941" cy="118.586" r="5.07873" fill="#2E5063" fill-opacity="0.2"/>
<circle cx="145.147" cy="118.586" r="5.07873" fill="#2E5063" fill-opacity="0.2"/>
<circle cx="5.91265" cy="137.458" r="5.07873" fill="#2E5063" fill-opacity="0.2"/>
<circle cx="29.1184" cy="137.458" r="5.07873" fill="#2E5063" fill-opacity="0.2"/>
<circle cx="52.3242" cy="137.458" r="5.07873" fill="#2E5063" fill-opacity="0.2"/>
<circle cx="75.53" cy="137.458" r="5.07873" fill="#2E5063" fill-opacity="0.2"/>
<circle cx="98.7357" cy="137.458" r="5.07873" fill="#2E5063" fill-opacity="0.2"/>
<circle cx="121.941" cy="137.458" r="5.07873" fill="#2E5063" fill-opacity="0.2"/>
<circle cx="145.147" cy="137.458" r="5.07873" fill="#2E5063" fill-opacity="0.2"/>
</svg>
