<svg width="60" height="63" viewBox="0 0 60 63" fill="none" xmlns="http://www.w3.org/2000/svg">
<g opacity="0.5" clip-path="url(#clip0)">
<path d="M59.5 33.7307C59.4595 49.772 46.1885 62.7806 29.9392 62.7407C13.6899 62.7008 0.479762 49.6723 0.500023 33.7108C0.520284 17.47 13.8115 4.68083 30.0811 4.74069C46.614 4.80054 59.5 17.7892 59.5 33.7307ZM30.0203 57.7926C43.1089 57.8126 54.5563 47.5374 54.5361 33.6908C54.5158 20.0238 43.2912 9.60894 29.9595 9.64884C16.5062 9.66879 5.42344 20.2433 5.46396 33.7507C5.50448 47.7569 17.0938 57.8525 30.0203 57.7926Z" fill="#777E86"/>
</g>
<g clip-path="url(#clip1)">
<path d="M59.5 29.7307C59.4595 45.772 46.1885 58.7806 29.9392 58.7407C13.6899 58.7008 0.479762 45.6723 0.500023 29.7108C0.520284 13.47 13.8115 0.680832 30.0811 0.740688C46.614 0.800543 59.5 13.7892 59.5 29.7307ZM30.0203 53.7926C43.1089 53.8126 54.5563 43.5374 54.5361 29.6908C54.5158 16.0238 43.2912 5.60894 29.9595 5.64884C16.5062 5.66879 5.42344 16.2433 5.46396 29.7507C5.50448 43.7569 17.0938 53.8525 30.0203 53.7926Z" fill="white"/>
</g>
<path d="M36.2214 33.2679L42.6964 28.1581C43.0865 27.846 43.2425 27.3389 43.0865 26.8709C42.9305 26.4028 42.5014 26.0907 41.9943 26.0907L33.842 25.9737L31.1116 18.1725C30.9556 17.7044 30.4875 17.3923 30.0194 17.3923C29.5123 17.3923 29.0833 17.7044 28.9272 18.1725L26.1968 25.9737L18.0055 26.0907C17.4984 26.0907 17.0693 26.4028 16.9133 26.8709C16.7573 27.3389 16.9133 27.846 17.3034 28.1581L23.7784 33.2679L21.477 40.9911C21.321 41.4592 21.516 41.9663 21.9061 42.2783C22.2962 42.5904 22.8423 42.5904 23.2323 42.3173L29.9804 37.7926L36.7285 42.3173C36.9235 42.4343 37.1576 42.5124 37.3916 42.5124C37.6256 42.5124 37.8987 42.4343 38.0937 42.2783C38.4838 41.9663 38.6788 41.4592 38.5228 40.9911L36.2214 33.2679Z" fill="#919498"/>
<path d="M29.9793 40.406C29.3162 40.406 28.8091 40.9131 28.8091 41.5762V45.4768C28.8091 46.1399 29.3162 46.647 29.9793 46.647C30.6424 46.647 31.1495 46.1399 31.1495 45.4768V41.5762C31.1495 40.9521 30.6424 40.406 29.9793 40.406Z" fill="#919498"/>
<path d="M25.1043 43.5269C24.4412 43.5269 23.9341 44.0339 23.9341 44.697V46.9204C23.9341 47.5835 24.4412 48.0906 25.1043 48.0906C25.7674 48.0906 26.2745 47.5835 26.2745 46.9204V44.697C26.2745 44.0729 25.7674 43.5269 25.1043 43.5269Z" fill="#919498"/>
<path d="M34.8557 43.5269C34.1926 43.5269 33.6855 44.0339 33.6855 44.697V46.9204C33.6855 47.5835 34.1926 48.0906 34.8557 48.0906C35.5188 48.0906 36.0259 47.5835 36.0259 46.9204V44.697C36.0259 44.0729 35.5188 43.5269 34.8557 43.5269Z" fill="#919498"/>
<path d="M36.2214 30.2679L42.6964 25.1581C43.0865 24.846 43.2425 24.3389 43.0865 23.8709C42.9305 23.4028 42.5014 23.0907 41.9943 23.0907L33.842 22.9737L31.1116 15.1725C30.9556 14.7044 30.4875 14.3923 30.0194 14.3923C29.5123 14.3923 29.0833 14.7044 28.9272 15.1725L26.1968 22.9737L18.0055 23.0907C17.4984 23.0907 17.0693 23.4028 16.9133 23.8709C16.7573 24.3389 16.9133 24.846 17.3034 25.1581L23.7784 30.2679L21.477 37.9911C21.321 38.4592 21.516 38.9663 21.9061 39.2783C22.2962 39.5904 22.8423 39.5904 23.2323 39.3173L29.9804 34.7926L36.7285 39.3173C36.9235 39.4343 37.1576 39.5124 37.3916 39.5124C37.6256 39.5124 37.8987 39.4343 38.0937 39.2783C38.4838 38.9663 38.6788 38.4592 38.5228 37.9911L36.2214 30.2679Z" fill="white"/>
<path d="M29.9793 37.406C29.3162 37.406 28.8091 37.9131 28.8091 38.5762V42.4768C28.8091 43.1399 29.3162 43.647 29.9793 43.647C30.6424 43.647 31.1495 43.1399 31.1495 42.4768V38.5762C31.1495 37.9521 30.6424 37.406 29.9793 37.406Z" fill="white"/>
<path d="M25.1043 40.5269C24.4412 40.5269 23.9341 41.0339 23.9341 41.697V43.9204C23.9341 44.5835 24.4412 45.0906 25.1043 45.0906C25.7674 45.0906 26.2745 44.5835 26.2745 43.9204V41.697C26.2745 41.0729 25.7674 40.5269 25.1043 40.5269Z" fill="white"/>
<path d="M34.8557 40.5269C34.1926 40.5269 33.6855 41.0339 33.6855 41.697V43.9204C33.6855 44.5835 34.1926 45.0906 34.8557 45.0906C35.5188 45.0906 36.0259 44.5835 36.0259 43.9204V41.697C36.0259 41.0729 35.5188 40.5269 34.8557 40.5269Z" fill="white"/>
<defs>
<clipPath id="clip0">
<rect width="59" height="58" fill="white" transform="translate(0.5 4.74146)"/>
</clipPath>
<clipPath id="clip1">
<rect width="59" height="58" fill="white" transform="translate(0.5 0.741455)"/>
</clipPath>
</defs>
</svg>
