<svg width="136" height="43" viewBox="0 0 136 43" fill="none" xmlns="http://www.w3.org/2000/svg">
<path d="M0.464 7.2H7.134V42H13.514V7.2H20.184V1.4H0.464V7.2ZM29.3738 24.6H36.6238V42H43.1198V1.4H36.6238V18.8H29.3738V1.4H22.9938V42H29.3738V24.6ZM54.1258 7.2H65.1458V1.4H47.7458V42H65.1458V36.2H54.1258V24.31H62.8838V18.51H54.1258V7.2ZM76.3652 42C77.4092 42.116 78.2792 42.116 79.4392 42.116C84.2532 42.116 88.6032 40.028 88.6032 31.908V1.4H82.2232V32.372C82.2232 35.504 80.5992 36.258 78.5692 36.258C77.8732 36.258 77.0612 36.258 76.3652 36.2V42ZM98.803 10.738C98.803 7.838 100.079 6.736 102.109 6.736C104.139 6.736 105.415 7.838 105.415 10.738V32.662C105.415 35.562 104.139 36.664 102.109 36.664C100.079 36.664 98.803 35.562 98.803 32.662V10.738ZM92.423 32.256C92.423 38.752 95.845 42.464 102.109 42.464C108.373 42.464 111.795 38.752 111.795 32.256V11.144C111.795 4.648 108.373 0.936 102.109 0.936C95.845 0.936 92.423 4.648 92.423 11.144V32.256ZM125.569 1.4H115.941V42H125.975C132.355 42 135.661 38.636 135.661 32.372V29.066C135.661 24.774 134.327 21.7 130.905 20.366C133.747 19.032 135.023 16.364 135.023 12.188V10.738C135.023 4.474 132.181 1.4 125.569 1.4ZM125.163 23.73C128.063 23.73 129.281 24.89 129.281 28.66V32.198C129.281 35.214 128.121 36.2 125.975 36.2H122.321V23.73H125.163ZM125.395 7.2C127.657 7.2 128.643 8.476 128.643 11.376V13.638C128.643 16.886 127.193 17.93 124.815 17.93H122.321V7.2H125.395Z" fill="white"/>
</svg>
