<svg width="150" height="143" viewBox="0 0 150 143" fill="none" xmlns="http://www.w3.org/2000/svg">
<circle cx="5.57873" cy="5.60363" r="5.07873" fill="#632E61" fill-opacity="0.2"/>
<circle cx="28.7845" cy="5.60363" r="5.07873" fill="#632E61" fill-opacity="0.2"/>
<circle cx="51.9902" cy="5.60363" r="5.07873" fill="#632E61" fill-opacity="0.2"/>
<circle cx="75.196" cy="5.60363" r="5.07873" fill="#632E61" fill-opacity="0.2"/>
<circle cx="98.4018" cy="5.60363" r="5.07873" fill="#632E61" fill-opacity="0.2"/>
<circle cx="121.608" cy="5.60363" r="5.07873" fill="#632E61" fill-opacity="0.2"/>
<circle cx="144.813" cy="5.60363" r="5.07873" fill="#632E61" fill-opacity="0.2"/>
<circle cx="5.57873" cy="24.4755" r="5.07873" fill="#632E61" fill-opacity="0.2"/>
<circle cx="28.7845" cy="24.4755" r="5.07873" fill="#632E61" fill-opacity="0.2"/>
<circle cx="51.9902" cy="24.4755" r="5.07873" fill="#632E61" fill-opacity="0.2"/>
<circle cx="75.196" cy="24.4755" r="5.07873" fill="#632E61" fill-opacity="0.2"/>
<circle cx="98.4018" cy="24.4755" r="5.07873" fill="#632E61" fill-opacity="0.2"/>
<circle cx="121.608" cy="24.4755" r="5.07873" fill="#632E61" fill-opacity="0.2"/>
<circle cx="144.813" cy="24.4755" r="5.07873" fill="#632E61" fill-opacity="0.2"/>
<circle cx="5.57873" cy="43.3478" r="5.07873" fill="#632E61" fill-opacity="0.2"/>
<circle cx="28.7845" cy="43.3475" r="5.07873" fill="#632E61" fill-opacity="0.2"/>
<circle cx="51.9902" cy="43.3475" r="5.07873" fill="#632E61" fill-opacity="0.2"/>
<circle cx="75.196" cy="43.3475" r="5.07873" fill="#632E61" fill-opacity="0.2"/>
<circle cx="98.4018" cy="43.3475" r="5.07873" fill="#632E61" fill-opacity="0.2"/>
<circle cx="121.608" cy="43.3475" r="5.07873" fill="#632E61" fill-opacity="0.2"/>
<circle cx="144.813" cy="43.3475" r="5.07873" fill="#632E61" fill-opacity="0.2"/>
<circle cx="5.57873" cy="62.2194" r="5.07873" fill="#632E61" fill-opacity="0.2"/>
<circle cx="28.7845" cy="62.2191" r="5.07873" fill="#632E61" fill-opacity="0.2"/>
<circle cx="51.9902" cy="62.2191" r="5.07873" fill="#632E61" fill-opacity="0.2"/>
<circle cx="75.196" cy="62.2191" r="5.07873" fill="#632E61" fill-opacity="0.2"/>
<circle cx="98.4018" cy="62.2191" r="5.07873" fill="#632E61" fill-opacity="0.2"/>
<circle cx="121.608" cy="62.2191" r="5.07873" fill="#632E61" fill-opacity="0.2"/>
<circle cx="144.813" cy="62.2191" r="5.07873" fill="#632E61" fill-opacity="0.2"/>
<circle cx="5.57873" cy="81.0914" r="5.07873" fill="#632E61" fill-opacity="0.2"/>
<circle cx="28.7845" cy="81.0912" r="5.07873" fill="#632E61" fill-opacity="0.2"/>
<circle cx="51.9902" cy="81.0912" r="5.07873" fill="#632E61" fill-opacity="0.2"/>
<circle cx="75.196" cy="81.0912" r="5.07873" fill="#632E61" fill-opacity="0.2"/>
<circle cx="98.4018" cy="81.0912" r="5.07873" fill="#632E61" fill-opacity="0.2"/>
<circle cx="121.608" cy="81.0912" r="5.07873" fill="#632E61" fill-opacity="0.2"/>
<circle cx="144.813" cy="81.0912" r="5.07873" fill="#632E61" fill-opacity="0.2"/>
<circle cx="5.57873" cy="99.9628" r="5.07873" fill="#632E61" fill-opacity="0.2"/>
<circle cx="28.7845" cy="99.9628" r="5.07873" fill="#632E61" fill-opacity="0.2"/>
<circle cx="51.9902" cy="99.9628" r="5.07873" fill="#632E61" fill-opacity="0.2"/>
<circle cx="75.196" cy="99.9628" r="5.07873" fill="#632E61" fill-opacity="0.2"/>
<circle cx="98.4018" cy="99.9628" r="5.07873" fill="#632E61" fill-opacity="0.2"/>
<circle cx="121.608" cy="99.9628" r="5.07873" fill="#632E61" fill-opacity="0.2"/>
<circle cx="144.813" cy="99.9628" r="5.07873" fill="#632E61" fill-opacity="0.2"/>
<circle cx="5.57873" cy="118.835" r="5.07873" fill="#632E61" fill-opacity="0.2"/>
<circle cx="28.7845" cy="118.835" r="5.07873" fill="#632E61" fill-opacity="0.2"/>
<circle cx="51.9902" cy="118.835" r="5.07873" fill="#632E61" fill-opacity="0.2"/>
<circle cx="75.196" cy="118.835" r="5.07873" fill="#632E61" fill-opacity="0.2"/>
<circle cx="98.4018" cy="118.835" r="5.07873" fill="#632E61" fill-opacity="0.2"/>
<circle cx="121.608" cy="118.835" r="5.07873" fill="#632E61" fill-opacity="0.2"/>
<circle cx="144.813" cy="118.835" r="5.07873" fill="#632E61" fill-opacity="0.2"/>
<circle cx="5.57873" cy="137.707" r="5.07873" fill="#632E61" fill-opacity="0.2"/>
<circle cx="28.7845" cy="137.706" r="5.07873" fill="#632E61" fill-opacity="0.2"/>
<circle cx="51.9902" cy="137.706" r="5.07873" fill="#632E61" fill-opacity="0.2"/>
<circle cx="75.196" cy="137.706" r="5.07873" fill="#632E61" fill-opacity="0.2"/>
<circle cx="98.4018" cy="137.706" r="5.07873" fill="#632E61" fill-opacity="0.2"/>
<circle cx="121.608" cy="137.706" r="5.07873" fill="#632E61" fill-opacity="0.2"/>
<circle cx="144.813" cy="137.706" r="5.07873" fill="#632E61" fill-opacity="0.2"/>
</svg>
